<svg width="52" height="55" viewBox="0 0 52 55" fill="none" xmlns="http://www.w3.org/2000/svg">
<path d="M25.5404 1.21931L25.2688 1.42825V4.19669C25.2688 6.81887 25.2792 6.96513 25.4777 7.16362C25.5927 7.27854 25.8225 7.37256 26.0001 7.37256C26.1777 7.37256 26.4075 7.27854 26.5224 7.16362C26.7209 6.96513 26.7314 6.81887 26.7314 4.19669V1.42825L26.4597 1.21931C26.303 1.09395 26.1046 0.999926 26.0001 0.999926C25.8956 0.999926 25.6971 1.09395 25.5404 1.21931Z" fill="#4CD8AD" stroke="#4CD8AD" stroke-width="0.5"/>
<path d="M8.42832 8.24993C8.12536 8.47977 8.03134 8.8663 8.19849 9.21105C8.38653 9.59759 11.5311 12.7421 11.9385 12.9511C12.4922 13.2331 13.1608 12.7421 13.0145 12.1571C12.9727 12.0213 12.0847 11.0602 11.0296 10.005C9.05514 8.04099 8.86709 7.91563 8.42832 8.24993Z" fill="#4CD8AD" stroke="#4CD8AD" stroke-width="0.5"/>
<path d="M40.9704 10.005C39.9153 11.0602 39.0273 12.0213 38.9855 12.1571C38.8392 12.7421 39.5079 13.2331 40.0615 12.9511C40.469 12.7421 43.6135 9.59759 43.8015 9.21105C44.0523 8.69915 43.6971 8.11412 43.1434 8.10368C42.9449 8.10368 42.4225 8.56334 40.9704 10.005Z" fill="#4CD8AD" stroke="#4CD8AD" stroke-width="0.5"/>
<path d="M23.6496 9.81718C21.3617 10.2351 19.6066 10.9454 17.7889 12.1573C11.9072 16.1167 9.92232 23.7534 13.1922 29.8962C13.4534 30.3768 14.0802 31.3692 14.5921 32.1005C16.9531 35.4644 18.1023 38.4627 18.4679 42.234C18.5306 42.9131 18.6351 43.3936 18.75 43.5712C18.9485 43.8742 19.4081 44.1458 19.7215 44.1458C19.92 44.1458 19.9305 44.2294 19.9618 47.7709L19.9932 51.4064L20.2857 52.0019C20.8394 53.1302 21.8318 53.7675 23.7541 54.248C24.8823 54.5196 27.2329 54.4987 28.4447 54.1958C30.2312 53.7466 31.255 53.0466 31.7773 51.8974C31.9967 51.4273 32.0071 51.2393 32.0385 47.7709C32.0698 44.2294 32.0803 44.1458 32.2788 44.1458C32.5922 44.1458 33.0518 43.8742 33.2503 43.5712C33.3652 43.3936 33.4802 42.8295 33.5742 41.952C34.0234 37.9821 35.0576 35.3495 37.5649 31.8602C39.5185 29.1336 40.3438 26.7099 40.3438 23.6698C40.3542 22.0923 40.1871 20.7447 39.9468 20.3686C39.6543 19.9089 38.829 19.9821 38.6409 20.4835C38.5783 20.6611 38.5887 21.0685 38.6932 21.7685C39.1842 25.0279 38.4007 28.0889 36.3322 30.9304C35.1621 32.5497 34.692 33.3228 33.9816 34.7958C32.9683 36.9165 32.331 39.1313 32.0594 41.4819C32.0071 41.9938 31.9549 42.4534 31.9549 42.4952C31.9549 42.5474 31.6519 42.5788 31.2863 42.5788H30.6177L30.5759 41.5863C30.5341 40.6461 30.5237 40.5834 30.2103 40.2596L29.876 39.9148L30.6177 34.4302C31.4326 28.4232 31.4221 28.6321 30.7744 28.2665C30.5132 28.1202 30.4401 28.1307 29.8969 28.3396C29.5626 28.4545 29.0507 28.6635 28.7477 28.7993L28.2149 29.0291L27.3374 28.653C25.9897 28.0784 26.021 28.0784 24.945 28.5903L24.0048 29.0395L23.5138 28.8515C21.7378 28.162 21.5393 28.1098 21.2677 28.2351C21.1214 28.3083 20.9125 28.4859 20.8185 28.6321C20.6513 28.8933 20.6513 29.0187 20.9647 31.3274C21.2781 33.6049 21.3095 33.7616 21.5602 33.9809C21.8945 34.2735 22.1348 34.2839 22.49 34.0018C22.6989 33.8347 22.7616 33.6989 22.7616 33.3959C22.7616 33.0407 22.5422 31.2439 22.396 30.3872L22.3333 30.0529L23.0855 30.3559C23.4929 30.5335 23.9421 30.6693 24.0675 30.6693C24.1928 30.6693 24.6629 30.4812 25.1017 30.2409C25.6032 29.9798 26.0002 29.8335 26.1464 29.8649C26.2613 29.8962 26.7837 30.0947 27.2956 30.3036L28.2254 30.6902L28.9044 30.4185C29.27 30.2618 29.5939 30.1469 29.6043 30.1678C29.6357 30.1992 28.4343 39.2567 28.3507 39.6223C28.2985 39.8626 28.2985 39.8626 26.0002 39.8626C23.7018 39.8626 23.7018 39.8626 23.6496 39.6223C23.6287 39.4969 23.5242 38.8283 23.4407 38.1388C23.3466 37.4493 23.2108 36.7807 23.1272 36.6658C22.8138 36.1748 22.0408 36.3002 21.8214 36.8748C21.7691 37.0315 21.8109 37.6269 21.9258 38.5149L22.1243 39.9148L21.8005 40.2491C21.4766 40.5834 21.4662 40.6461 21.4244 41.5863L21.3826 42.5788H20.714C20.3484 42.5788 20.0454 42.5474 20.0454 42.4952C20.0454 42.4534 19.9932 41.9938 19.9409 41.4819C19.5022 37.7001 18.2276 34.5346 15.7308 31.0349C14.7697 29.6873 13.9966 28.1516 13.631 26.8979C11.3744 19 17.5277 11.2066 26.0002 11.2171C28.7999 11.2275 31.1192 11.9275 33.4175 13.4632C34.4622 14.1631 36.1441 15.8764 36.9172 17.036C37.5022 17.9136 37.5754 17.9762 37.9306 18.0076C38.4007 18.0494 38.7454 17.7569 38.7454 17.3181C38.7454 16.8793 37.638 15.2705 36.5829 14.1527C34.5666 12.0424 31.9654 10.5903 29.0193 9.93209C27.9851 9.70226 24.6629 9.62914 23.6496 9.81718ZM29.0298 42.0042V42.5788H26.0002H22.9705V42.0042V41.4296H26.0002H29.0298V42.0042ZM30.4923 44.9816V45.8173H26.0002H21.508V44.9816V44.1458H26.0002H30.4923V44.9816ZM30.4923 47.8022V48.3246H26.0002H21.508V47.8022V47.2799H26.0002H30.4923V47.8022ZM30.4923 50.32C30.4923 51.4378 29.9387 52.1377 28.7686 52.4929C26.9299 53.0571 25.0704 53.0675 23.2422 52.5034C22.093 52.1482 21.5184 51.4378 21.508 50.3826V49.8916H26.0002H30.4923V50.32Z" fill="#4CD8AD" stroke="#4CD8AD" stroke-width="0.5"/>
<path d="M1.30345 25.4667C0.916914 25.8219 0.89602 26.2607 1.26166 26.595C1.48105 26.7935 1.61686 26.804 4.16591 26.804C6.71496 26.804 6.85078 26.7935 7.07016 26.595C7.4358 26.2607 7.41491 25.8219 7.02837 25.4667C6.7672 25.2369 6.71496 25.2369 4.16591 25.2369C1.61686 25.2369 1.56462 25.2369 1.30345 25.4667Z" fill="#4CD8AD" stroke="#4CD8AD" stroke-width="0.5"/>
<path d="M44.9714 25.4667C44.5849 25.8219 44.564 26.2607 44.9296 26.595C45.149 26.7935 45.2848 26.804 47.8339 26.804C50.3829 26.804 50.5187 26.7935 50.7381 26.595C51.1038 26.2607 51.0829 25.8219 50.6963 25.4667C50.4352 25.2369 50.3829 25.2369 47.8339 25.2369C45.2848 25.2369 45.2326 25.2369 44.9714 25.4667Z" fill="#4CD8AD" stroke="#4CD8AD" stroke-width="0.5"/>
<path d="M10.0476 40.9283C9.00288 41.9834 8.14623 42.9132 8.13579 42.9968C8.06266 43.5505 8.37607 43.937 8.88797 43.937C9.18048 43.937 9.4521 43.7072 11.1341 42.0252C12.7638 40.3955 13.0458 40.0612 13.0458 39.8C13.0458 39.3717 12.7011 39.027 12.2832 39.027C11.9907 39.027 11.7295 39.2463 10.0476 40.9283Z" fill="#4CD8AD" stroke="#4CD8AD" stroke-width="0.5"/>
<path d="M39.163 39.2568C39.0481 39.3821 38.9541 39.6224 38.9541 39.8C38.9541 40.0612 39.2362 40.3955 40.8659 42.0252C42.5478 43.7072 42.8195 43.937 43.112 43.937C43.6239 43.937 43.9373 43.5505 43.8642 42.9968C43.8537 42.9132 42.9971 41.9834 41.9524 40.9283C40.2704 39.2463 40.0092 39.027 39.7167 39.027C39.5078 39.027 39.2989 39.1105 39.163 39.2568Z" fill="#4CD8AD" stroke="#4CD8AD" stroke-width="0.5"/>
</svg>
