<?xml version="1.0" standalone="no"?>
<!DOCTYPE svg PUBLIC "-//W3C//DTD SVG 20010904//EN"
 "http://www.w3.org/TR/2001/REC-SVG-20010904/DTD/svg10.dtd">
<svg version="1.0" xmlns="http://www.w3.org/2000/svg"
 width="512.000000pt" height="512.000000pt" viewBox="0 0 512.000000 512.000000"
 preserveAspectRatio="xMidYMid meet">

<g transform="translate(0.000000,512.000000) scale(0.100000,-0.100000)"
fill="#000000" stroke="none">
<path d="M2285 5113 c-22 -1 -82 -6 -134 -9 -72 -5 -97 -10 -112 -25 -27 -27
-25 -80 5 -108 l24 -22 188 12 c221 14 603 7 834 -16 324 -31 766 -121 841
-170 20 -13 47 -41 60 -62 l24 -38 3 -1282 2 -1283 -1460 0 -1460 0 2 1283 3
1282 23 37 c41 67 88 86 346 144 84 19 157 41 167 50 26 23 25 78 -2 105 -26
26 -56 24 -235 -16 -252 -57 -327 -93 -392 -189 -66 -100 -62 24 -60 -1852 l3
-1699 33 -67 c32 -66 86 -124 145 -154 15 -8 82 -30 150 -48 l122 -34 6 -123
c6 -142 21 -181 88 -242 45 -40 113 -64 299 -103 64 -13 118 -24 119 -24 1 0
3 -95 5 -211 3 -208 3 -211 27 -230 30 -25 76 -24 101 1 19 19 20 33 20 219
l0 200 58 -6 c31 -2 62 -6 69 -8 8 -3 12 -60 15 -195 3 -188 4 -192 27 -211
28 -23 69 -24 99 -3 21 15 22 20 22 205 l0 189 200 0 200 0 0 -189 c0 -185 1
-190 22 -205 30 -21 71 -20 99 3 23 19 24 23 27 211 3 135 7 192 15 195 7 2
38 6 70 9 l57 6 0 -200 c0 -187 1 -201 20 -220 25 -25 71 -26 101 -1 24 19 24
22 27 227 2 143 7 211 15 216 6 4 33 10 60 13 27 4 58 16 68 26 28 28 25 80
-6 109 -25 23 -27 24 -98 11 -561 -100 -1124 -83 -1563 48 -99 29 -108 42
-113 158 l-3 96 36 -7 c204 -38 533 -71 821 -82 286 -10 759 22 1037 71 46 8
89 15 96 15 9 0 12 -25 12 -90 0 -77 3 -93 20 -110 28 -28 75 -26 105 5 23 22
25 31 25 127 l0 103 113 29 c61 15 134 39 160 53 65 32 124 94 156 162 l26 56
0 1720 0 1720 -26 56 c-34 72 -90 134 -149 164 -153 78 -660 168 -1095 195
-146 9 -513 11 -610 3z m1735 -3478 c0 -359 -2 -370 -63 -433 -35 -37 -89 -56
-267 -96 -715 -160 -1512 -163 -2221 -10 -246 53 -310 81 -345 151 -17 35 -19
67 -22 376 l-3 337 1461 0 1460 0 0 -325z"/>
<path d="M1990 1580 c-43 -43 -13 -130 45 -130 35 0 75 42 75 78 0 60 -78 94
-120 52z"/>
<path d="M2510 1580 c-28 -28 -26 -81 3 -108 29 -28 57 -28 91 -1 52 41 23
129 -44 129 -17 0 -39 -9 -50 -20z"/>
<path d="M3032 1577 c-31 -33 -29 -80 4 -106 53 -42 114 -13 114 54 0 68 -73
100 -118 52z"/>
<path d="M2405 4351 c-421 -122 -557 -646 -249 -955 111 -110 247 -166 406
-166 157 0 291 56 402 166 205 206 224 531 44 759 -78 98 -185 168 -305 199
-80 21 -221 20 -298 -3z m276 -147 c179 -53 299 -214 299 -404 0 -167 -91
-310 -245 -386 -56 -27 -68 -29 -175 -29 -107 0 -119 2 -175 29 -84 41 -165
122 -206 204 -28 58 -34 80 -37 158 -7 162 52 283 184 374 94 66 240 88 355
54z"/>
<path d="M2577 3921 c-64 -64 -97 -106 -97 -120 0 -29 52 -81 81 -81 16 0 54
32 121 98 108 108 118 133 73 177 -45 46 -71 36 -178 -74z"/>
</g>
</svg>
