<?xml version="1.0" standalone="no"?>
<!DOCTYPE svg PUBLIC "-//W3C//DTD SVG 20010904//EN"
 "http://www.w3.org/TR/2001/REC-SVG-20010904/DTD/svg10.dtd">
<svg version="1.0" xmlns="http://www.w3.org/2000/svg"
 width="512.000000pt" height="512.000000pt" viewBox="0 0 512.000000 512.000000"
 preserveAspectRatio="xMidYMid meet">

<g transform="translate(0.000000,512.000000) scale(0.100000,-0.100000)"
fill="#000000" stroke="none">
<path d="M1332 4378 c-7 -7 -12 -22 -12 -34 0 -40 -16 -68 -78 -136 -111 -123
-111 -222 0 -345 63 -69 78 -97 78 -144 0 -41 -20 -76 -70 -124 -72 -68 -112
-184 -75 -215 32 -27 60 -3 70 61 4 25 24 56 70 107 116 129 116 223 -2 354
-95 107 -97 164 -7 258 97 102 127 230 54 230 -9 0 -21 -5 -28 -12z"/>
<path d="M3892 4378 c-7 -7 -12 -22 -12 -34 0 -40 -16 -68 -78 -136 -111 -123
-111 -222 0 -345 63 -69 78 -97 78 -144 0 -41 -20 -76 -70 -124 -72 -68 -112
-184 -75 -215 32 -27 60 -3 70 61 4 25 24 56 70 107 116 129 116 223 -2 354
-95 107 -97 164 -7 258 97 102 127 230 54 230 -9 0 -21 -5 -28 -12z"/>
<path d="M802 4348 c-7 -7 -12 -23 -12 -36 0 -33 -16 -60 -72 -119 -117 -125
-117 -241 0 -366 58 -62 72 -86 72 -126 0 -47 -14 -72 -78 -143 -80 -88 -105
-173 -59 -202 26 -17 48 3 62 57 9 34 27 63 67 104 67 71 93 133 85 203 -8 62
-24 95 -85 161 -59 65 -72 88 -72 129 0 43 22 81 85 150 83 90 102 200 35 200
-9 0 -21 -5 -28 -12z"/>
<path d="M1862 4348 c-7 -7 -12 -23 -12 -36 0 -33 -16 -60 -72 -119 -66 -72
-92 -131 -85 -199 7 -66 22 -95 91 -172 31 -34 59 -74 62 -88 11 -45 -4 -94
-43 -140 -88 -103 -102 -125 -109 -169 -7 -52 6 -75 42 -75 18 0 25 7 30 28
15 67 27 91 70 133 86 83 115 187 75 274 -10 22 -40 65 -68 95 -60 66 -73 89
-73 130 0 41 12 63 78 138 89 103 111 212 42 212 -9 0 -21 -5 -28 -12z"/>
<path d="M3362 4348 c-7 -7 -12 -23 -12 -36 0 -33 -16 -60 -72 -119 -117 -125
-117 -241 0 -366 58 -62 72 -86 72 -126 0 -47 -14 -72 -78 -143 -80 -88 -105
-173 -59 -202 26 -17 48 3 62 57 9 34 27 63 67 104 67 71 93 133 85 203 -8 62
-24 95 -85 161 -59 65 -72 88 -72 129 0 43 22 81 85 150 83 90 102 200 35 200
-9 0 -21 -5 -28 -12z"/>
<path d="M4422 4348 c-7 -7 -12 -23 -12 -36 0 -33 -16 -60 -72 -119 -66 -72
-92 -131 -85 -199 7 -66 22 -95 91 -172 31 -34 59 -74 62 -88 11 -45 -4 -94
-43 -140 -88 -103 -102 -125 -109 -169 -7 -52 6 -75 42 -75 18 0 25 7 30 28
15 67 27 91 70 133 86 83 115 187 75 274 -10 22 -40 65 -68 95 -60 66 -73 89
-73 130 0 41 12 63 78 138 89 103 111 212 42 212 -9 0 -21 -5 -28 -12z"/>
<path d="M291 3196 c-9 -11 -11 -166 -9 -623 l4 -608 26 -98 c87 -318 294
-570 583 -708 123 -59 217 -85 357 -101 195 -22 385 12 573 101 286 136 497
392 583 708 l26 98 4 608 c2 457 0 612 -9 623 -10 12 -167 14 -1069 14 -902 0
-1059 -2 -1069 -14z m2066 -643 c-4 -666 -3 -656 -102 -858 -154 -314 -445
-519 -792 -558 -358 -40 -725 132 -932 436 -51 75 -118 224 -143 317 -21 82
-22 103 -25 663 l-4 577 1001 0 1001 0 -4 -577z"/>
<path d="M1267 2998 c-244 -21 -491 -170 -632 -382 -101 -152 -145 -301 -145
-490 0 -334 184 -628 485 -776 149 -73 202 -85 385 -85 184 0 236 12 386 86
178 87 306 215 394 394 65 131 90 237 90 382 0 188 -44 337 -145 489 -180 270
-482 411 -818 382z m288 -99 c278 -67 507 -300 575 -581 25 -103 26 -260 4
-361 -20 -94 -100 -257 -162 -331 -99 -119 -236 -209 -392 -258 -64 -20 -96
-23 -220 -23 -124 0 -156 3 -220 23 -226 71 -389 210 -490 417 -66 137 -84
223 -78 384 4 102 10 141 32 206 119 350 440 567 811 547 33 -2 96 -12 140
-23z"/>
<path d="M1269 2819 c-120 -16 -130 -24 -144 -126 -13 -98 28 -222 100 -302
19 -21 35 -42 35 -46 0 -14 -94 6 -153 32 -74 33 -139 104 -168 183 -31 85
-53 88 -113 16 -70 -86 -136 -224 -136 -286 0 -23 11 -37 61 -74 33 -25 84
-53 112 -61 57 -17 185 -20 235 -6 17 5 32 6 32 1 0 -24 -98 -112 -156 -141
-62 -31 -67 -32 -164 -26 -120 6 -130 0 -111 -66 29 -96 141 -268 189 -290 26
-12 124 25 177 65 57 44 110 117 136 189 12 32 25 56 30 54 19 -12 44 -114 43
-180 0 -81 -22 -137 -77 -203 -44 -52 -46 -66 -11 -89 52 -33 337 -27 381 8 6
6 17 41 23 78 19 116 -15 231 -95 320 -19 21 -35 42 -35 46 0 15 101 -4 153
-28 68 -32 124 -89 154 -157 36 -83 38 -85 65 -85 53 0 184 207 195 307 5 43
4 46 -39 81 -95 78 -210 108 -327 87 -35 -6 -65 -9 -68 -6 -3 3 18 30 47 60
88 93 193 129 305 106 50 -10 59 -10 74 4 14 15 14 22 -7 81 -28 81 -71 154
-130 224 -42 49 -48 53 -79 48 -59 -10 -140 -54 -188 -102 -41 -40 -67 -86
-113 -195 l-10 -25 -16 38 c-56 129 -38 258 49 359 36 43 40 54 26 76 -17 28
-177 46 -282 31z m131 -75 l36 -6 -28 -56 c-40 -82 -51 -151 -37 -240 6 -41 9
-76 6 -78 -8 -8 -99 79 -123 118 -34 54 -55 142 -48 200 l6 47 47 6 c25 4 53
8 61 9 26 6 44 6 80 0z m443 -236 c32 -40 77 -115 77 -129 0 -4 -31 -9 -68
-13 -81 -8 -171 -48 -230 -100 -22 -20 -42 -36 -46 -36 -12 0 -6 48 14 113 23
73 87 154 149 187 52 28 66 25 104 -22z m-869 -136 c42 -39 73 -56 176 -99
l25 -11 -35 -15 c-115 -49 -250 -38 -338 30 -26 19 -31 29 -26 46 11 36 64
141 81 159 15 16 18 15 43 -25 15 -23 48 -62 74 -85z m464 -112 c130 -79 74
-280 -78 -280 -152 0 -208 201 -78 280 43 26 113 26 156 0z m428 -245 c28 -14
59 -34 69 -45 17 -18 16 -22 -14 -85 -17 -37 -40 -80 -51 -96 l-21 -29 -40 59
c-54 82 -95 110 -239 168 l-25 10 22 11 c86 46 212 49 299 7z m-720 -31 c-15
-113 -105 -235 -192 -264 -33 -11 -38 -10 -60 11 -29 30 -94 138 -94 157 0 9
7 11 20 7 56 -18 228 45 284 104 41 43 50 39 42 -15z m282 -159 c32 -35 57
-74 68 -107 20 -61 23 -163 5 -181 -7 -7 -53 -13 -116 -15 l-105 -4 30 58 c41
79 53 155 40 236 -5 34 -10 69 -10 76 0 21 32 -2 88 -63z"/>
<path d="M1293 2240 c-93 -57 -79 -194 25 -230 37 -13 47 -13 84 0 79 28 111
117 68 187 -37 61 -116 81 -177 43z m101 -76 c9 -8 16 -24 16 -34 0 -10 -7
-26 -16 -34 -8 -9 -24 -16 -34 -16 -43 0 -65 54 -34 84 8 9 24 16 34 16 10 0
26 -7 34 -16z"/>
<path d="M2691 3196 c-9 -11 -11 -166 -9 -623 l4 -608 26 -98 c87 -318 294
-570 583 -708 123 -59 217 -85 357 -101 195 -22 385 12 573 101 286 136 497
392 583 708 l26 98 4 608 c2 457 0 612 -9 623 -10 12 -167 14 -1069 14 -902 0
-1059 -2 -1069 -14z m2066 -643 c-4 -666 -3 -656 -102 -858 -154 -314 -445
-519 -792 -558 -358 -40 -725 132 -932 436 -51 75 -118 224 -143 317 -21 82
-22 103 -25 663 l-4 577 1001 0 1001 0 -4 -577z"/>
<path d="M3667 2998 c-244 -21 -491 -170 -632 -382 -101 -152 -145 -301 -145
-490 0 -334 184 -628 485 -776 149 -73 202 -85 385 -85 184 0 236 12 386 86
178 87 306 215 394 394 65 131 90 237 90 382 0 188 -44 337 -145 489 -180 270
-482 411 -818 382z m288 -99 c278 -67 507 -300 575 -581 25 -103 26 -260 4
-361 -20 -94 -100 -257 -162 -331 -99 -119 -236 -209 -392 -258 -64 -20 -96
-23 -220 -23 -124 0 -156 3 -220 23 -226 71 -389 210 -490 417 -66 137 -84
223 -78 384 4 102 10 141 32 206 119 350 440 567 811 547 33 -2 96 -12 140
-23z"/>
<path d="M3673 2820 c-85 -13 -101 -19 -108 -41 -5 -15 2 -31 24 -57 41 -48
78 -126 86 -182 7 -49 -17 -175 -39 -205 -11 -15 -15 -10 -34 42 -51 139 -159
240 -279 259 -38 6 -42 4 -82 -42 -53 -60 -113 -162 -138 -232 -22 -63 -12
-89 33 -84 123 11 180 6 235 -21 53 -25 168 -132 156 -143 -3 -3 -32 0 -63 6
-79 17 -165 6 -239 -29 -84 -39 -135 -85 -135 -122 0 -95 149 -335 202 -327
12 2 24 10 29 18 4 8 21 45 38 82 47 99 137 161 252 175 l52 6 -50 -66 c-66
-85 -88 -149 -87 -252 1 -112 14 -136 84 -153 80 -19 289 -12 324 11 35 23 33
39 -9 86 -58 64 -80 124 -79 216 0 62 5 91 23 130 23 49 23 49 33 25 66 -158
113 -216 209 -263 93 -46 110 -45 155 3 60 63 109 141 140 220 33 84 27 106
-27 103 -191 -11 -233 1 -326 91 -35 34 -63 68 -63 75 0 6 4 10 9 7 5 -3 37
-10 72 -15 121 -17 242 20 322 97 35 33 38 41 34 75 -7 52 -70 180 -119 245
-70 91 -95 91 -127 2 -29 -79 -94 -150 -168 -183 -59 -26 -153 -46 -153 -32 0
4 16 25 35 46 78 87 115 211 95 322 -7 34 -16 67 -22 74 -21 26 -207 47 -295
33z m203 -86 c28 -5 32 -10 37 -47 13 -96 -33 -208 -117 -283 -27 -25 -51 -43
-53 -40 -3 2 0 35 6 73 13 87 1 168 -37 245 l-28 57 25 4 c27 5 113 0 167 -9z
m-485 -212 c67 -43 117 -107 139 -180 20 -64 26 -112 14 -112 -4 0 -25 16 -47
36 -62 57 -153 95 -231 97 -37 1 -66 7 -66 12 0 37 101 175 129 175 9 0 37
-13 62 -28z m892 -69 c16 -26 38 -70 49 -97 l20 -51 -33 -27 c-45 -38 -122
-62 -194 -61 -63 1 -173 33 -166 49 2 5 21 14 42 20 83 25 199 120 231 189 6
14 14 25 17 25 3 0 19 -21 34 -47z m-445 -193 c130 -79 74 -280 -78 -280 -152
0 -208 201 -78 280 43 26 113 26 156 0z m-326 -236 c27 -9 50 -19 53 -24 2 -4
-22 -17 -55 -29 -85 -31 -149 -79 -197 -149 l-42 -62 -21 30 c-11 16 -34 58
-51 95 -35 73 -33 78 29 117 80 49 183 57 284 22z m511 -30 c70 -64 212 -113
281 -98 l28 6 -32 -61 c-18 -33 -47 -77 -64 -97 -31 -36 -33 -37 -69 -25 -57
19 -130 91 -160 159 -27 60 -46 152 -32 152 4 0 26 -16 48 -36z m-252 -171
c-14 -89 -1 -169 39 -247 l30 -59 -110 5 c-60 2 -113 7 -116 11 -14 13 -7 134
11 187 13 40 34 71 81 119 35 36 66 62 70 59 3 -4 1 -37 -5 -75z"/>
<path d="M3693 2240 c-93 -57 -79 -194 25 -230 37 -13 47 -13 84 0 79 28 111
117 68 187 -37 61 -116 81 -177 43z m101 -76 c31 -30 9 -84 -34 -84 -24 0 -50
26 -50 50 0 24 26 50 50 50 10 0 26 -7 34 -16z"/>
</g>
</svg>
