<svg width="100" height="101" viewBox="0 0 100 101" fill="none" xmlns="http://www.w3.org/2000/svg">
<path d="M1.01305 0.298584C-0.0023855 0.864883 0.0366699 0.493858 0.0171422 15.413C0.0171422 30.6837 -0.0219132 30.2345 1.16928 30.6446C1.95038 30.918 2.73149 30.6837 3.21968 30.0197C3.61024 29.5315 3.62976 29.141 3.7274 24.7082L3.82504 19.9434L8.60932 24.7277L13.3936 29.512L8.55074 34.3549L3.7274 39.1782V37.2254C3.7274 34.9016 3.49307 33.9253 2.82913 33.4956C1.93086 32.8903 0.661556 33.2027 0.231947 34.1401C-0.0804962 34.8431 -0.0804962 98.2299 0.251474 98.9329C0.778722 100.085 -2.71673 100.007 50.008 100.007C102.733 100.007 99.2373 100.085 99.7645 98.9329C99.9403 98.5424 99.9989 87.1382 99.9989 49.9965C99.9989 -2.70868 100.077 0.786774 98.9249 0.259529C98.1438 -0.111496 1.677 -0.0724411 1.01305 0.298584ZM11.5385 3.79404C11.5385 3.81357 9.78098 5.59058 7.63294 7.73863L3.7274 11.6442V7.68005V3.73545H7.63294C9.78098 3.73545 11.5385 3.75498 11.5385 3.79404ZM38.682 3.79404C38.682 3.81357 36.5925 5.92255 34.0344 8.48068L29.4063 13.1087L24.7197 8.4221L20.033 3.73545H29.3672C34.4835 3.73545 38.682 3.75498 38.682 3.79404ZM66.0207 3.79404C66.0207 3.81357 63.9313 5.92255 61.3731 8.48068L56.7451 13.1087L52.0584 8.4221L47.3718 3.73545H56.706C61.8223 3.73545 66.0207 3.75498 66.0207 3.79404ZM93.3595 3.79404C93.3595 3.81357 91.27 5.92255 88.7119 8.48068L84.0838 13.1087L79.3972 8.4221L74.7105 3.73545H84.0448C89.161 3.73545 93.3595 3.75498 93.3595 3.79404ZM28.3323 17.1119L40.7324 29.512L35.206 35.0188L29.6992 40.5451L17.2601 28.106L4.80142 15.6473L10.2692 10.1796C13.2764 7.17233 15.776 4.71184 15.8346 4.71184C15.8931 4.71184 21.5171 10.2968 28.3323 17.1119ZM51.6679 13.1087C59.9867 21.408 60.0843 21.5056 60.8654 21.5056C61.7442 21.5056 62.3886 20.9979 62.6034 20.0997C62.7791 19.3771 62.4862 18.8889 60.7873 17.151L59.2837 15.6473L64.81 10.121L70.3168 4.6142L82.7559 17.0729L95.2146 29.512L89.7078 35.0188L84.1815 40.5451L75.062 31.4257C68.9108 25.294 65.7473 22.2672 65.3763 22.1696C64.0875 21.8571 62.8572 23.1655 63.3064 24.3762C63.404 24.6691 64.5171 25.9384 65.7278 27.1687L67.9735 29.4144L62.4081 34.9798L56.8427 40.5451L44.4426 28.1451L32.0425 15.745L37.5493 10.2382C40.5957 7.19186 43.1147 4.71184 43.1733 4.71184C43.2124 4.71184 47.0398 8.48068 51.6679 13.1087ZM96.2886 15.6864V25.3135L91.4653 20.4902L86.6224 15.6473L91.4067 10.8631C94.0429 8.22682 96.2105 6.07877 96.23 6.07877C96.2691 6.07877 96.2886 10.4139 96.2886 15.6864ZM15.3854 54.8394L3.7274 66.517V55.3862V44.2554L9.82004 38.1628L15.9322 32.0506L21.4976 37.616L27.063 43.1814L15.3854 54.8394ZM41.865 55.5229L29.4063 67.9815L23.8995 62.4747L18.3732 56.9484L30.8123 44.5093L43.271 32.0506L48.7778 37.5574L54.3041 43.0837L41.865 55.5229ZM72.7773 51.9688C67.8954 56.8508 63.8141 61.0492 63.6774 61.3031C63.2478 62.1818 63.9898 63.5878 64.9467 63.6854C65.8645 63.7831 66.1769 63.5878 68.2078 61.596L70.3363 59.5065L82.7755 71.9457L95.2146 84.3848L89.6883 89.8916L84.1815 95.4179L71.7423 82.9788L59.3032 70.5397L61.3927 68.4111C63.5798 66.185 63.775 65.7944 63.2478 64.7985C62.8963 64.1346 62.4667 63.9003 61.6465 63.8807C60.9435 63.8807 60.7287 64.0174 58.815 65.9311L56.7451 67.9815L51.2187 62.4552L45.7119 56.9484L58.1511 44.5093L70.6097 32.0506L76.1165 37.5574L81.6429 43.0837L72.7773 51.9688ZM90.196 61.8694L84.0838 67.9815L78.5184 62.4161L72.953 56.8508L84.572 45.2318L96.191 33.6128L96.2496 44.685L96.2886 55.7767L90.196 61.8694ZM28.3323 71.9847L40.7324 84.3848L35.206 89.8916L29.6992 95.4179L17.2601 82.9788L4.80142 70.5201L10.2692 65.0524C13.2764 62.0451 15.776 59.5846 15.8346 59.5846C15.8931 59.5846 21.5171 65.1696 28.3323 71.9847ZM55.632 71.9457L67.9735 84.2872L62.4081 89.8525L56.8427 95.4179L44.4426 83.0179L32.0425 70.6178L37.5493 65.111C40.5957 62.0647 43.1147 59.5846 43.1733 59.5846C43.2319 59.5846 48.8363 65.15 55.632 71.9457ZM96.2886 70.5592V80.1863L91.4653 75.363L86.6224 70.5201L91.4067 65.7359C94.0429 63.0996 96.2105 60.9516 96.23 60.9516C96.2691 60.9516 96.2886 65.2867 96.2886 70.5592ZM8.55074 89.2081L3.7274 94.051V84.3848V74.7186L8.55074 79.5615L13.3936 84.3848L8.55074 89.2081ZM20.6188 91.61L25.3055 96.2967H15.9322H6.55892L11.2456 91.61C13.8232 89.0324 15.9322 86.9234 15.9322 86.9234C15.9322 86.9234 18.0412 89.0324 20.6188 91.61ZM47.9576 91.61L52.6442 96.2967H43.271H33.8977L38.5843 91.61C41.162 89.0324 43.271 86.9234 43.271 86.9234C43.271 86.9234 45.38 89.0324 47.9576 91.61ZM75.2964 91.61L79.983 96.2967H70.6097H61.2364L65.9231 91.61C68.5007 89.0324 70.6097 86.9234 70.6097 86.9234C70.6097 86.9234 72.7187 89.0324 75.2964 91.61ZM96.2886 92.3911V96.2967H92.344H88.3799L92.2854 92.3911C94.4335 90.2431 96.2105 88.4856 96.23 88.4856C96.2691 88.4856 96.2886 90.2431 96.2886 92.3911Z" fill="#4CD8AD"/>
</svg>
