<svg width="85" height="85" viewBox="0 0 85 85" fill="none" xmlns="http://www.w3.org/2000/svg">
<path d="M35.5133 0.382202C35.0651 0.63147 34.65 1.01368 34.4175 1.42912C34.0523 2.04398 34.0357 2.2434 34.0357 6.01563V9.97067H18.6283H3.22094L2.35759 10.4027C1.39463 10.8847 0.614303 11.7654 0.249042 12.7957C-0.0830139 13.7263 -0.0830139 16.0362 0.249042 16.9668C0.763727 18.4125 2.02554 19.4927 3.50318 19.7419L4.23371 19.8749L4.31672 47.3607C4.39973 73.783 4.41634 74.8798 4.71519 75.3118C4.88121 75.5611 5.27968 75.9433 5.62834 76.1427C6.15963 76.4917 6.47508 76.5249 8.76626 76.5748L11.2899 76.6413V78.9179C11.2899 81.61 11.5057 82.5406 12.3857 83.5543C13.5313 84.9003 13.8965 85 17.682 85C20.5376 85 21.0855 84.9668 21.6002 84.7009C22.4636 84.2688 23.2439 83.4545 23.6756 82.5073C24.0408 81.7429 24.074 81.4438 24.074 79.1339V76.608H42.4865H60.9156L60.9654 79.3167C61.0152 82.2747 61.1314 82.7234 62.1276 83.737C63.2732 84.9169 63.6384 85 67.3242 85C71.1097 85 71.4749 84.9003 72.6205 83.5543C73.5005 82.5406 73.7163 81.61 73.7163 78.9179V76.6413L76.2565 76.5748C78.5643 76.5249 78.83 76.4917 79.4111 76.1427C80.7061 75.3284 80.5899 77.9707 80.6895 47.2776L80.7725 19.8749L81.4698 19.7419C83.0139 19.4927 84.2591 18.4291 84.7571 16.9668C85.0726 16.0029 85.0892 13.7263 84.7571 12.7957C84.3919 11.7654 83.6116 10.8847 82.6486 10.4027L81.7853 9.97067H66.3779H50.9705V6.01563C50.9705 2.2434 50.9539 2.04398 50.5886 1.42912C50.3562 1.01368 49.9411 0.63147 49.4929 0.382202C48.7623 -7.62939e-06 48.7291 -7.62939e-06 42.5031 -7.62939e-06C36.2771 -7.62939e-06 36.2439 -7.62939e-06 35.5133 0.382202ZM48.148 6.39784V9.97067H42.5031H36.8582V6.39784V2.82502H42.5031H48.148V6.39784ZM81.6524 13.1281C82.1173 13.5767 82.2335 14.0753 82.1505 15.3216C82.0841 16.1193 82.0011 16.4018 81.7022 16.6344C81.337 16.9335 80.0254 16.9501 42.5031 16.9501C4.98083 16.9501 3.66921 16.9335 3.30395 16.6344C3.0051 16.4018 2.92209 16.1193 2.85568 15.3216C2.77266 14.0753 2.88888 13.5767 3.35376 13.1281C3.71902 12.7957 3.76883 12.7957 42.5031 12.7957C81.2374 12.7957 81.2872 12.7957 81.6524 13.1281ZM77.867 46.7791V73.783H42.5031H7.13919V46.7791V19.7752H42.5031H77.867V46.7791ZM21.2515 78.9511V81.2942L20.7701 81.7761L20.2886 82.2581H17.6986C15.2247 82.2581 15.1085 82.2414 14.6602 81.8592C14.1954 81.4604 14.1954 81.4604 14.1456 79.0342L14.0958 76.608H17.6653H21.2515V78.9511ZM70.8606 79.0342C70.8108 81.4604 70.8108 81.4604 70.3459 81.8592C69.8977 82.2414 69.7814 82.2581 67.3076 82.2581H64.7176L64.2361 81.7761L63.7546 81.2942V78.9511V76.608H67.3408H70.9104L70.8606 79.0342Z" fill="#4CD8AD"/>
<path d="M10.3767 21.6863C10.0115 22.0352 9.96167 22.2347 9.96167 23.3979C9.96167 24.5445 10.0115 24.7439 10.3435 25.0431C10.8914 25.5416 11.2401 25.6081 11.8876 25.3422C12.5849 25.0597 12.7841 24.5778 12.7841 23.2483C12.7841 22.351 12.7343 22.1848 12.3027 21.7527C11.6718 21.1379 10.9412 21.1047 10.3767 21.6863Z" fill="#4CD8AD"/>
<path d="M19.5082 23.0821C18.6283 23.4976 17.7982 24.3451 17.3665 25.2591C17.0178 25.9902 17.0178 26.1564 17.0178 39.0518V52.0968L17.5159 52.9941C18.1136 54.0909 18.9271 54.7723 19.9897 55.088C21.2183 55.4536 63.7878 55.4536 65.0164 55.088C66.079 54.7723 66.8926 54.0909 67.4903 52.9941L67.9883 52.0968V39.0518C67.9883 26.173 67.9883 25.9902 67.6397 25.2591C67.208 24.3285 66.3779 23.481 65.4979 23.0821C64.867 22.783 63.7712 22.7664 42.5031 22.7664C21.1021 22.7664 20.1391 22.783 19.5082 23.0821ZM35.6129 26.6217C34.5171 27.8348 33.8032 29.2473 33.5542 30.6931C33.3217 31.9726 33.438 32.7869 34.1519 34.6149C34.982 36.7918 35.1979 37.7889 35.1979 39.5504C35.1979 42.1593 35.3473 42.176 32.5746 39.3676C30.0344 36.8084 29.2043 36.2434 28.0587 36.2268C27.2451 36.2268 26.0663 36.8583 25.6181 37.5396C25.0204 38.437 25.1034 39.2346 26.0497 41.2288C28.1251 45.6325 27.7432 48.9228 24.8543 51.6149L23.8914 52.5122H22.4801C20.7368 52.5122 20.1723 52.263 19.9233 51.3822C19.7905 50.9502 19.7573 47.045 19.7905 38.6031L19.8403 26.4555L20.2388 26.0235L20.6372 25.5914H28.6066H36.5593L35.6129 26.6217ZM64.7674 26.0235L65.1659 26.4555L65.2157 38.6031C65.2489 47.045 65.2157 50.9502 65.0829 51.3822C64.8172 52.3294 64.2361 52.5621 62.3434 52.479C61.0152 52.4291 60.7329 52.3793 60.1186 51.9638C59.7368 51.7146 59.2719 51.2659 59.1059 50.9668C58.6576 50.2522 58.6742 48.8397 59.1225 47.8593C60.7827 44.2698 60.6333 40.8798 58.6576 37.7556C57.8938 36.5425 57.2962 36.1936 56.0343 36.26C54.6065 36.3431 54.125 36.7419 53.1953 38.6031C52.2489 40.5142 51.369 41.6608 50.0739 42.6911C49.0612 43.4888 48.3141 43.9541 48.3141 43.8045C48.3141 43.7547 48.4967 43.0899 48.7125 42.3255C49.2936 40.2982 49.4098 38.8524 49.0778 37.5562C48.5963 35.695 47.6499 34.7146 45.7738 34.0831C45.2425 33.9169 44.6116 33.6012 44.3792 33.3852C43.2834 32.3549 42.6193 30.3109 42.4201 27.3695L42.3038 25.5914H53.3281H64.3689L64.7674 26.0235ZM39.5976 28.0342C40.0625 32.9863 41.839 35.9609 44.7777 36.7586C45.6078 36.9746 46.1225 37.4731 46.3383 38.2542C46.5542 39.0851 46.4213 40.0489 45.7904 42.176C45.2425 44.0538 45.2591 44.6354 45.8734 45.5494C46.4047 46.347 47.2349 46.7625 48.231 46.7625C50.2898 46.7625 53.959 43.522 55.5529 40.2815L56.1838 39.0186L56.5822 39.8329C57.7444 42.1095 57.7278 44.2366 56.5158 46.7791C56.0841 47.6765 56.0343 47.9423 56.0343 49.521C56.0343 50.8505 56.1007 51.3988 56.3332 51.8309C56.4826 52.1466 56.6154 52.4291 56.6154 52.4624C56.6154 52.479 50.1902 52.5122 42.3204 52.5122H28.0255L28.3907 51.9638C30.5823 48.6901 30.7317 44.6354 28.8058 40.3314L28.3741 39.3509L28.839 39.6833C29.4035 40.0987 31.7445 42.5083 32.5912 43.5719C33.853 45.1339 35.779 45.3001 37.0574 43.9375C37.7381 43.2063 37.8875 42.6246 37.9871 40.3646C38.0867 37.8055 37.8875 36.5592 37.0076 34.2493C35.9284 31.3744 36.1442 30.1779 38.1532 28.0508C38.7509 27.436 39.2821 26.9208 39.3486 26.9208C39.4316 26.9208 39.5312 27.4194 39.5976 28.0342Z" fill="#4CD8AD"/>
<path d="M10.3767 28.8318L9.96167 29.2307V37.606V45.9814L10.3269 46.3138C10.5428 46.4966 10.8416 46.696 11.0076 46.7458C11.4725 46.912 12.4355 46.4301 12.6181 45.9482C12.8672 45.3001 12.8339 29.6627 12.5849 29.1974C12.12 28.3167 11.0575 28.1339 10.3767 28.8318Z" fill="#4CD8AD"/>
<path d="M13.2324 59.6745C12.2694 59.9072 11.7215 60.2395 10.991 61.0704C10.0945 62.1007 9.92844 62.8153 9.99485 65.4908C10.0447 67.5015 10.0779 67.7674 10.4265 68.2659C10.6424 68.565 11.1072 68.9473 11.4559 69.13C12.1034 69.4624 12.5517 69.4624 42.5031 69.4624C72.4545 69.4624 72.9027 69.4624 73.5502 69.13C73.8989 68.9473 74.3638 68.565 74.5796 68.2659C74.9283 67.7674 74.9615 67.5015 75.0113 65.4908C75.0777 62.7654 74.9117 62.0841 73.9487 61.0039C72.5375 59.4253 75.692 59.5748 42.8351 59.5416C26.1992 59.5416 13.5976 59.5914 13.2324 59.6745ZM71.8236 62.8651C72.1888 63.2972 72.222 63.48 72.222 64.9922V66.6374H42.5031H12.7841V64.9922C12.7841 63.6129 12.8339 63.2972 13.1162 62.9316C13.2988 62.699 13.6143 62.4663 13.8301 62.4331C14.0293 62.3998 27.0791 62.3666 42.8019 62.3832L71.4251 62.3998L71.8236 62.8651Z" fill="#4CD8AD"/>
</svg>
