<?xml version="1.0" standalone="no"?>
<!DOCTYPE svg PUBLIC "-//W3C//DTD SVG 20010904//EN"
 "http://www.w3.org/TR/2001/REC-SVG-20010904/DTD/svg10.dtd">
<svg version="1.0" xmlns="http://www.w3.org/2000/svg"
 width="512.000000pt" height="512.000000pt" viewBox="0 0 512.000000 512.000000"
 preserveAspectRatio="xMidYMid meet">

<g transform="translate(0.000000,512.000000) scale(0.100000,-0.100000)"
fill="#000000" stroke="none">
<path d="M838 4439 c-349 -51 -641 -327 -712 -671 -14 -67 -16 -205 -16 -1096
0 -689 4 -1037 11 -1077 29 -157 127 -341 241 -452 116 -112 272 -196 428
-229 97 -20 3443 -20 3540 0 170 36 309 113 435 241 95 96 161 203 207 335
l33 95 3 1050 c2 933 1 1059 -13 1130 -34 169 -119 319 -253 447 -132 126
-290 204 -465 227 -95 13 -3351 13 -3439 0z m3477 -224 c174 -44 335 -175 414
-335 74 -152 72 -108 69 -1243 l-3 -1012 -22 -65 c-56 -162 -181 -308 -325
-380 -151 -74 -33 -70 -1888 -70 -1840 0 -1739 -3 -1875 65 -138 68 -237 167
-301 300 -65 135 -64 107 -64 1195 0 1102 -2 1060 71 1210 77 156 241 290 409
334 85 23 3428 23 3515 1z"/>
<path d="M1595 4024 c-250 -38 -469 -126 -652 -263 -99 -74 -244 -224 -310
-321 -260 -386 -309 -883 -128 -1312 174 -412 554 -716 1005 -804 138 -27 381
-25 515 4 132 28 210 54 324 108 354 167 627 493 726 869 36 134 46 216 46
361 0 229 -50 441 -151 633 -137 258 -367 482 -621 600 -194 91 -328 121 -554
126 -93 2 -183 1 -200 -1z m310 -215 c127 -16 243 -51 370 -114 778 -383 857
-1473 144 -1974 -133 -94 -310 -165 -477 -191 -74 -12 -267 -15 -339 -5 -366
51 -686 274 -859 599 -163 307 -178 684 -39 1006 78 181 241 379 404 489 229
156 516 224 796 190z"/>
<path d="M1973 3591 c-39 -24 -42 -34 -40 -151 1 -86 -3 -106 -40 -215 -23
-67 -55 -152 -73 -190 l-32 -70 -29 63 c-75 166 -191 297 -317 359 -74 37 -79
38 -186 38 -107 0 -113 -1 -174 -34 -100 -54 -180 -156 -238 -304 -40 -99 -74
-253 -81 -364 l-6 -102 33 -31 c40 -38 71 -38 153 -3 55 24 77 27 205 31 128
4 372 -13 372 -25 0 -3 -25 -39 -56 -81 -68 -93 -139 -235 -160 -322 -11 -44
-15 -93 -12 -156 3 -78 8 -101 36 -157 97 -196 325 -259 624 -172 170 49 317
116 338 155 14 26 12 101 -3 121 -7 9 -26 23 -43 32 -72 37 -182 200 -274 404
-27 62 -50 114 -50 116 0 2 55 7 123 10 146 8 242 31 355 88 106 52 186 130
233 225 31 63 34 77 34 159 0 83 -3 96 -34 160 -66 135 -249 288 -465 391
-103 49 -145 54 -193 25z m304 -338 c170 -128 207 -223 131 -338 -55 -83 -154
-133 -305 -155 -43 -6 -101 -10 -129 -8 l-51 3 63 145 c69 163 118 302 135
391 l12 59 36 -21 c20 -12 68 -46 108 -76z m-929 -53 c58 -26 141 -111 185
-190 38 -69 91 -199 83 -207 -2 -3 -60 2 -128 11 -179 23 -352 30 -427 17 -36
-6 -66 -9 -67 -8 -1 1 8 44 21 94 25 97 81 216 118 251 58 55 139 67 215 32z
m450 -931 c58 -122 129 -243 179 -303 14 -16 20 -33 15 -38 -4 -4 -52 -19
-106 -33 -405 -103 -518 128 -244 497 l61 82 18 -39 c10 -22 45 -97 77 -166z"/>
<path d="M3480 3715 l0 -105 475 0 475 0 0 105 0 105 -475 0 -475 0 0 -105z"/>
<path d="M3480 3190 l0 -110 473 2 472 3 0 105 0 105 -472 3 -473 2 0 -110z"/>
<path d="M3480 2665 l0 -105 475 0 475 0 0 105 0 105 -475 0 -475 0 0 -105z"/>
<path d="M3480 2145 l0 -105 475 0 475 0 0 105 0 105 -475 0 -475 0 0 -105z"/>
<path d="M3480 1620 l0 -110 473 2 472 3 3 108 3 107 -476 0 -475 0 0 -110z"/>
<path d="M640 675 l0 -105 235 0 235 0 0 105 0 105 -235 0 -235 0 0 -105z"/>
<path d="M4010 675 l0 -105 235 0 235 0 0 105 0 105 -235 0 -235 0 0 -105z"/>
</g>
</svg>
