<svg width="85" height="79" viewBox="0 0 85 79" fill="none" xmlns="http://www.w3.org/2000/svg">
<path d="M41.7584 0.499161C41.4926 0.615456 38.3028 3.2903 34.6975 6.44695L28.135 12.1788L28.052 10.2017C27.9855 8.55692 27.919 8.1748 27.62 7.77606C26.972 6.91214 26.6398 6.87891 18.6817 6.92876C10.7402 6.97859 10.9728 6.96198 10.3249 7.89236C10.0092 8.34093 9.84308 10.8496 10.0092 12.2784C10.1587 13.4746 10.7568 14.1226 11.8534 14.2721L12.601 14.3884L12.5844 20.0704V25.7523L6.53691 30.9857C3.21412 33.8599 0.373137 36.4517 0.206997 36.7341C-0.324648 37.6978 0.206997 38.8441 1.35336 39.2761C1.6358 39.3924 3.41349 39.4588 5.87235 39.4588H9.92615L9.97599 50.4074C10.0258 60.9074 10.0424 61.3726 10.3415 61.7049C10.7735 62.1867 11.6042 62.1701 12.0693 61.6717L12.4349 61.2895V49.9921L12.4515 38.7112L27.3542 25.7523C35.5448 18.625 42.3732 12.7935 42.5061 12.7935C42.639 12.7935 49.4673 18.625 57.658 25.7523L72.5607 38.7112L72.5773 57.4019C72.5773 71.7397 72.5275 76.159 72.3779 76.3085C72.2284 76.4581 69.9357 76.5079 63.0741 76.5079H53.9697V61.2563C53.9697 52.7168 53.9032 45.7389 53.8036 45.3734C53.6208 44.5261 53.1722 43.9446 52.3748 43.496C51.7268 43.1139 51.7102 43.1139 43.2869 43.1139C34.1825 43.1139 34.3985 43.0973 33.4016 43.9944C32.5377 44.7919 32.5377 44.7753 32.5377 61.2563V76.5079H22.6857C15.2426 76.5079 12.7837 76.4581 12.6342 76.3085C12.4847 76.159 12.4349 74.8133 12.4349 71.2579C12.4349 66.606 12.4182 66.4066 12.086 65.9747C11.5045 65.227 10.4578 65.4596 10.1255 66.39C9.87631 67.0878 9.87631 75.3615 10.1255 76.5079C10.3415 77.5214 10.9396 78.269 11.8534 78.6843C12.4847 78.9834 13.764 79 42.5061 79C71.2482 79 72.5275 78.9834 73.1588 78.6843C74.0726 78.269 74.6707 77.5214 74.8866 76.5079C75.0196 75.9264 75.0694 69.9952 75.0694 57.568V39.4588H79.1398C83.4428 39.4588 83.9579 39.3924 84.5892 38.678C85.0544 38.1463 85.1374 37.2326 84.7719 36.6677C84.423 36.1361 67.0615 20.9343 66.48 20.6519C65.6659 20.2531 64.6192 21.25 64.9349 22.0973C65.1176 22.5625 65.6825 23.0775 73.6572 29.9889C77.5947 33.3948 80.984 36.352 81.2166 36.568L81.6319 36.9667L77.8938 36.9501H74.1556L59.12 23.8251C50.8463 16.5981 43.8684 10.5506 43.586 10.3678C43.3202 10.2017 42.8217 10.0522 42.5061 10.0522C42.1904 10.0522 41.7086 10.2017 41.4262 10.3678C41.1604 10.5506 34.1659 16.5981 25.8921 23.8251L10.8565 36.9501H7.11839H3.38026L3.87868 36.5016C6.30431 34.3085 42.4064 2.99125 42.5061 2.99125C42.5725 2.99125 46.7592 6.57986 51.7933 10.9659C56.8273 15.352 61.0971 19.0071 61.2798 19.0902C61.745 19.3061 62.5591 18.9074 62.7419 18.3924C63.0575 17.462 63.8716 18.2595 51.677 7.64315C47.2743 3.80534 43.4531 0.58223 43.2039 0.465935C42.6224 0.200111 42.3732 0.216721 41.7584 0.499161ZM25.5599 10.6337V11.8797H18.9974H12.4349V10.6337V9.38762H18.9974H25.5599V10.6337ZM23.4001 15.3354V16.3156L21.1239 18.2927C19.8613 19.3726 17.9839 21.0008 16.9705 21.8979L15.0931 23.5261V18.9572V14.3718H19.2466H23.4001V15.3354ZM51.1619 45.606C51.4776 45.7721 51.4776 46.121 51.4776 61.14V76.5079H43.2537H35.0298V61.14C35.0298 46.7025 35.0464 45.7721 35.3289 45.6226C35.7276 45.39 50.7134 45.3734 51.1619 45.606Z" fill="#4CD8AD"/>
</svg>
