<svg width="100" height="100" viewBox="0 0 100 100" fill="none" xmlns="http://www.w3.org/2000/svg">
<path d="M0.651042 0.651047L0 1.27605V50V98.724L0.651042 99.349L1.27604 100H50H98.724L99.349 99.349L100 98.724V50V1.27605L99.349 0.651047C98.5156 -0.208328 97.3177 -0.208328 96.4844 0.651047C95.8333 1.27605 95.8333 1.27605 95.8333 6.90105V12.5H89.5833H83.3333V6.90105C83.3333 1.27605 83.3333 1.27605 82.6823 0.651047C81.849 -0.208328 80.651 -0.208328 79.8177 0.651047C79.1667 1.27605 79.1667 1.27605 79.1667 6.90105V12.5H72.9167H66.6667V6.90105C66.6667 1.27605 66.6667 1.27605 66.0156 0.651047C65.625 0.234375 65.0781 0 64.5833 0C64.0885 0 63.5417 0.234375 63.151 0.651047C62.5 1.27605 62.5 1.27605 62.5 6.90105V12.5H56.25H50V6.90105C50 1.27605 50 1.27605 49.349 0.651047L48.724 0H25H1.27604L0.651042 0.651047ZM45.8333 26.4323V48.724L46.4844 49.349L47.1094 50H71.4844H95.8333V66.6667V83.3333H50H4.16667V43.75V4.16667H25H45.8333V26.4323ZM62.5 22.9167V29.1667H56.25H50V22.9167V16.6667H56.25H62.5V22.9167ZM79.1667 22.9167V29.1667H72.9167H66.6667V22.9167V16.6667H72.9167H79.1667V22.9167ZM95.8333 22.9167V29.1667H89.5833H83.3333V22.9167V16.6667H89.5833H95.8333V22.9167ZM62.5 39.5833V45.8333H56.25H50V39.5833V33.3333H56.25H62.5V39.5833ZM79.1667 39.5833V45.8333H72.9167H66.6667V39.5833V33.3333H72.9167H79.1667V39.5833ZM95.8333 39.5833V45.8333H89.5833H83.3333V39.5833V33.3333H89.5833H95.8333V39.5833ZM95.8333 91.6667V95.8333H50H4.16667V91.6667V87.5H50H95.8333V91.6667Z" fill="#4CD8AD"/>
<path d="M8.98429 8.98434L8.33325 9.60934V39.5833V69.5573L8.98429 70.1823C9.81763 71.0416 11.0155 71.0416 11.8489 70.1823L12.4999 69.5573V41.0156V12.5H22.2655H32.0572L32.6822 11.8489C33.0989 11.4583 33.3333 10.9114 33.3333 10.4166C33.3333 9.92184 33.0989 9.37496 32.6822 8.98434L32.0572 8.33329H20.8333H9.60929L8.98429 8.98434Z" fill="#4CD8AD"/>
<path d="M38.1511 8.98438C36.8491 10.2604 37.7605 12.5 39.5834 12.5C40.6511 12.5 41.6668 11.4844 41.6668 10.4167C41.6668 9.34896 40.6511 8.33333 39.5834 8.33333C39.0886 8.33333 38.5418 8.56771 38.1511 8.98438Z" fill="#4CD8AD"/>
<path d="M8.98429 75.651C8.56763 76.0416 8.33325 76.5885 8.33325 77.0833C8.33325 77.5781 8.56763 78.125 8.98429 78.5156C9.37492 78.9323 9.92179 79.1666 10.4166 79.1666C10.9114 79.1666 11.4583 78.9323 11.8489 78.5156C12.2655 78.125 12.4999 77.5781 12.4999 77.0833C12.4999 76.5885 12.2655 76.0416 11.8489 75.651C11.4583 75.2343 10.9114 75 10.4166 75C9.92179 75 9.37492 75.2343 8.98429 75.651Z" fill="#4CD8AD"/>
<path d="M17.3178 75.651C16.9011 76.0416 16.6667 76.5885 16.6667 77.0833C16.6667 77.5781 16.9011 78.125 17.3178 78.5156L17.9428 79.1666H50.0001H82.0574L82.6824 78.5156C83.5417 77.6823 83.5417 76.4843 82.6824 75.651L82.0574 75H50.0001H17.9428L17.3178 75.651Z" fill="#4CD8AD"/>
<path d="M88.1511 75.651C86.8491 76.927 87.7605 79.1666 89.5834 79.1666C90.6511 79.1666 91.6668 78.151 91.6668 77.0833C91.6668 76.0156 90.6511 75 89.5834 75C89.0886 75 88.5418 75.2343 88.1511 75.651Z" fill="#4CD8AD"/>
</svg>
