<svg width="18" height="25" viewBox="0 0 18 25" fill="none" xmlns="http://www.w3.org/2000/svg">
<path d="M9 0C4.02752 0 1.18424e-05 3.9874 1.18424e-05 8.90542C-0.00314336 10.8262 0.624265 12.6961 1.78782 14.2336L7.56069 24.1278C7.5942 24.1916 7.62771 24.2551 7.66888 24.3135L7.68165 24.3353L7.68516 24.3334C7.83544 24.5406 8.03364 24.7092 8.2632 24.8252C8.49277 24.9411 8.74704 25.0011 9.00479 25C9.50137 25 9.93412 24.7764 10.2319 24.4319L10.2469 24.4404L10.304 24.3425C10.3882 24.2301 10.4629 24.1101 10.5169 23.9778L16.1726 14.2839C17.3608 12.7376 18.0028 10.8479 18 8.90542C18 3.9874 13.9725 0 9 0ZM8.91096 13.4202C6.46095 13.4202 4.47655 11.4557 4.47655 9.03237C4.47655 6.60936 6.46095 4.64455 8.91096 4.64455C11.361 4.64455 13.3454 6.60936 13.3454 9.03237C13.3454 11.4554 11.361 13.4202 8.91096 13.4202Z" fill="#4CD8AD"/>
</svg>
