<svg width="36" height="36" viewBox="0 0 36 36" fill="none" xmlns="http://www.w3.org/2000/svg">
<path fill-rule="evenodd" clip-rule="evenodd" d="M27.2189 7.21L27.1289 7.14C26.9559 5.826 26.3269 4.457 25.3449 3.303C23.7499 1.428 21.1499 0 17.6699 0C14.2399 0 11.8229 1.564 10.3969 3.503C9.73178 4.39999 9.25644 5.42315 8.99994 6.51C8.95324 6.71352 8.91587 6.91907 8.88794 7.126L8.77994 7.209C7.65594 8.08 6.83094 9.136 7.02694 10.347C7.21494 11.517 8.27294 12.229 9.25694 12.664C9.50694 12.775 9.77694 12.879 10.0639 12.976C9.91936 14.1033 10.0166 15.2484 10.3493 16.3352C10.6819 17.4219 11.2423 18.4253 11.993 19.2785C12.7438 20.1318 13.6678 20.8152 14.7034 21.2834C15.739 21.7516 16.8624 21.9937 17.9989 21.9937C19.1355 21.9937 20.2589 21.7516 21.2945 21.2834C22.3301 20.8152 23.2541 20.1318 24.0048 19.2785C24.7556 18.4253 25.316 17.4219 25.6486 16.3352C25.9813 15.2484 26.0785 14.1033 25.9339 12.976C26.2209 12.879 26.4909 12.776 26.7409 12.664C27.7249 12.229 28.7819 11.517 28.9709 10.347C29.1669 9.136 28.3419 8.08 27.2179 7.209L27.2189 7.21ZM10.9449 8.672C10.8149 8.298 10.7809 7.697 10.9499 6.954C11.1159 6.229 11.4599 5.434 11.9999 4.698V7.5C11.9999 7.76522 12.1053 8.01957 12.2928 8.20711C12.4804 8.39464 12.7347 8.5 12.9999 8.5C13.2652 8.5 13.5195 8.39464 13.707 8.20711C13.8946 8.01957 13.9999 7.76522 13.9999 7.5V2.91C14.8229 2.442 15.8179 2.115 16.9999 2.025V5.5C16.9999 5.76522 17.1053 6.01957 17.2928 6.20711C17.4804 6.39464 17.7347 6.5 17.9999 6.5C18.2652 6.5 18.5195 6.39464 18.707 6.20711C18.8946 6.01957 18.9999 5.76522 18.9999 5.5V2.087C20.1679 2.244 21.1669 2.605 21.9999 3.087V7.5C21.9999 7.76522 22.1053 8.01957 22.2928 8.20711C22.4804 8.39464 22.7347 8.5 22.9999 8.5C23.2652 8.5 23.5195 8.39464 23.707 8.20711C23.8946 8.01957 23.9999 7.76522 23.9999 7.5V4.818C25.1049 6.234 25.3639 7.762 25.0529 8.679C24.9759 8.90596 24.9829 9.15304 25.0728 9.37524C25.1626 9.59745 25.3292 9.78 25.5424 9.88965C25.7555 9.9993 26.0009 10.0288 26.2339 9.97266C26.467 9.91656 26.6721 9.77863 26.8119 9.584C27.0089 9.859 27.0019 10.005 26.9979 10.028C26.9849 10.108 26.8319 10.438 25.9329 10.836C25.5429 11.008 25.0789 11.163 24.5579 11.3L24.5339 11.306C23.9689 11.452 23.3399 11.576 22.6669 11.678C21.4188 11.858 20.1607 11.9615 18.8999 11.988C18.0332 12.0097 17.166 12.0003 16.2999 11.96C15.3038 11.9154 14.3105 11.8206 13.3239 11.676C12.6539 11.576 12.0289 11.452 11.4659 11.306L11.4419 11.3C10.9721 11.1818 10.5123 11.0267 10.0669 10.836C9.16794 10.438 9.01494 10.108 9.00194 10.028C8.99794 10.005 8.99094 9.859 9.18794 9.584C9.32804 9.77952 9.53392 9.91799 9.76783 9.97402C10.0017 10.0301 10.248 9.99991 10.4615 9.88909C10.675 9.77828 10.8414 9.59423 10.9302 9.37069C11.019 9.14715 11.0242 8.89909 10.9449 8.672ZM12.0219 13.481C12.3539 13.546 12.6979 13.605 13.0499 13.658C14.1179 13.818 15.2679 13.92 16.4379 13.968C17.4808 14.0109 18.525 14.0109 19.5679 13.968C20.7319 13.92 21.8779 13.818 22.9409 13.658C23.2959 13.606 23.6429 13.547 23.9779 13.481C24.0491 14.3092 23.9473 15.143 23.6792 15.9298C23.4111 16.7166 22.9824 17.4391 22.4203 18.0514C21.8583 18.6638 21.1752 19.1527 20.4142 19.4872C19.6533 19.8216 18.8311 19.9943 17.9999 19.9943C17.1687 19.9943 16.3466 19.8216 15.5857 19.4872C14.8247 19.1527 14.1416 18.6638 13.5795 18.0514C13.0175 17.4391 12.5888 16.7166 12.3207 15.9298C12.0526 15.143 11.9508 14.3092 12.0219 13.481Z" fill="#4CD8AD"/>
<path fill-rule="evenodd" clip-rule="evenodd" d="M23 22.49C23.658 22.605 24.328 22.739 25 22.892C30.443 24.135 36 26.62 36 30V36H0V30C0 26.62 5.557 24.135 11 22.892C11.6631 22.7409 12.33 22.6068 13 22.49V27H23V22.49ZM9 25.49C9.654 25.29 10.325 25.109 11 24.946V29H25V24.947C26.013 25.1894 27.0141 25.479 28 25.815V34H30V26.597C30.29 26.726 30.57 26.859 30.838 26.996C31.975 27.574 32.818 28.17 33.352 28.74C33.877 29.3 34 29.713 34 30V34H2V30C2 29.713 2.123 29.3 2.648 28.74C3.182 28.17 4.025 27.574 5.162 26.996C5.731 26.706 6.348 26.434 7 26.181V34H9V25.491V25.49Z" fill="#4CD8AD"/>
</svg>
