<svg width="100" height="85" viewBox="0 0 100 85" fill="none" xmlns="http://www.w3.org/2000/svg">
<path d="M17.106 0.175697C16.7936 0.253807 16.3249 0.42955 16.1101 0.546715C15.3681 0.937263 14.0988 2.55804 13.9426 3.30009C13.845 3.69064 13.7864 6.13157 13.7864 8.72871V13.4348L8.6116 13.5129C2.89006 13.591 2.61668 13.6496 1.40598 14.8603C0.0976372 16.1687 0.0195274 16.5006 0.0195274 22.1636C0.0195274 27.7484 0.0976372 28.1585 1.30834 29.3692C2.57762 30.619 2.79242 30.658 8.55302 30.658H13.7864V35.6375V40.617H8.6116C4.00312 40.617 3.35872 40.6561 2.6362 40.988C1.67936 41.4372 0.546768 42.7065 0.253857 43.7219C-0.0585823 44.7373 -0.0585823 53.6809 0.234329 54.6963C0.566296 55.7703 1.50361 56.8053 2.6362 57.3325C3.59305 57.7816 3.78832 57.8012 8.70924 57.8012H13.7864V62.683V67.5649H9.15837C6.60027 67.5649 4.10076 67.6625 3.55399 67.7797C2.18707 68.0726 1.15212 68.8927 0.527241 70.162L0 71.2165L0.0585823 76.3718C0.117165 81.156 0.156219 81.5856 0.527241 82.3081C1.01543 83.2454 2.28471 84.2608 3.30014 84.5538C3.7688 84.6709 8.26011 84.749 15.7391 84.749H27.4556L28.4905 84.2608L29.506 83.7922L30.248 84.2218C30.9705 84.6514 30.99 84.6514 42.9408 84.71L54.9307 84.7686L55.9461 84.2999L56.9615 83.8312L57.7426 84.2413C58.5042 84.6514 58.6604 84.6514 70.8065 84.6514C84.6905 84.6514 83.636 84.7686 85.1396 83.0697C85.5692 82.562 85.9988 81.859 86.0769 81.4489C86.1746 81.0583 86.2332 78.6174 86.2332 76.0203V71.3142L91.4079 71.236C96.3484 71.1775 96.6217 71.1579 97.5005 70.7283C97.9887 70.4745 98.6331 69.9668 98.926 69.5957C99.9609 68.2483 100 67.9554 100 62.5463C100 57.0005 99.9219 56.5905 98.7112 55.3798C97.4419 54.13 97.2271 54.091 91.4665 54.091H86.2332V49.1115V44.132H91.4079C97.2857 44.132 97.5981 44.0538 98.8479 42.5893C99.9024 41.3591 100 40.8123 100 35.5399C100 30.1113 99.9024 29.584 98.7307 28.3928C97.3833 27.065 96.778 26.9478 91.0369 26.9478H86.0379L86.0965 22.1636C86.1355 19.1368 86.0769 17.0865 85.9402 16.5787C85.6669 15.6024 84.5147 14.3136 83.4993 13.8449C82.8159 13.5325 82.1324 13.4739 77.5434 13.4739H72.3687V8.43581C72.3687 3.92496 72.3296 3.33914 71.9977 2.67521C71.4899 1.64025 70.1035 0.488136 69.049 0.214752C68.4632 0.0780563 64.4796 -5.34058e-05 56.5905 -5.34058e-05H44.9912L44.0539 0.488136L43.097 0.956795L42.4136 0.527191L41.7106 0.0975876L29.7012 0.0585327C23.101 0.0390015 17.438 0.0975876 17.106 0.175697ZM41.0076 3.98354C41.1638 4.15929 41.2224 5.60432 41.1834 8.80682L41.1248 13.3762L29.5255 13.4348C21.1287 13.4544 17.8481 13.4153 17.6723 13.2591C17.4575 13.0833 17.3989 12.1265 17.3989 8.74825C17.3989 6.17062 17.4771 4.31551 17.5942 4.08118C17.7895 3.72969 18.141 3.71016 29.2912 3.71016C38.801 3.71016 40.8319 3.74921 41.0076 3.98354ZM68.5413 3.98354C68.6975 4.15929 68.7561 5.60432 68.717 8.80682L68.6585 13.3762L57.0592 13.4348C48.6624 13.4544 45.3818 13.4153 45.206 13.2591C44.9912 13.0833 44.9326 12.1265 44.9326 8.74825C44.9326 6.17062 45.0107 4.31551 45.1279 4.08118C45.3232 3.72969 45.6747 3.71016 56.8248 3.71016C66.3347 3.71016 68.3656 3.74921 68.5413 3.98354ZM82.0933 17.438C82.4058 17.6528 82.4253 18.1214 82.3862 22.2612L82.3277 26.8502L70.7284 26.9088C62.3316 26.9283 59.051 26.8892 58.8752 26.733C58.5042 26.4206 58.4847 17.7699 58.8362 17.4184C59.1877 17.0669 81.6247 17.0865 82.0933 17.438ZM27.3384 17.6528C27.4946 17.8285 27.5532 19.254 27.5142 22.3784L27.4556 26.8502H15.6415H3.82738L3.7688 22.3589C3.74927 19.8984 3.7688 17.7699 3.80785 17.6332C3.96407 17.2427 27.026 17.2622 27.3384 17.6528ZM54.8721 17.6528C55.0283 17.8285 55.0869 19.254 55.0478 22.3784L54.9893 26.8502H43.1752H31.3611L31.3025 22.3589C31.283 19.8984 31.3025 17.7699 31.3415 17.6332C31.4978 17.2427 54.5597 17.2622 54.8721 17.6528ZM41.0076 30.9314C41.1638 31.1072 41.2224 32.5522 41.1834 35.7547L41.1248 40.3241L29.506 40.3827C18.7659 40.4217 17.8676 40.4022 17.6528 40.0898C17.3404 39.6797 17.3013 31.6149 17.5942 31.029C17.7895 30.6776 18.141 30.658 29.2912 30.658C38.801 30.658 40.8319 30.6971 41.0076 30.9314ZM68.3656 31.0486C68.7366 31.4196 68.7561 31.693 68.7561 35.7156C68.7561 39.3477 68.717 40.0507 68.4437 40.3046C68.1703 40.578 66.8424 40.617 56.7663 40.617C48.1937 40.617 45.3427 40.5584 45.167 40.3827C44.9912 40.2069 44.9326 38.8791 44.9326 35.5985C44.9326 31.4977 44.9717 31.0486 45.2841 30.8728C45.4989 30.7361 49.5606 30.6776 56.8053 30.658C67.7211 30.658 67.975 30.658 68.3656 31.0486ZM95.9188 30.8533C96.2703 31.0486 96.2898 31.322 96.2898 35.4813C96.2898 39.3282 96.2507 39.9531 95.9578 40.2655C95.6649 40.5975 95.04 40.617 84.2804 40.617C75.7274 40.617 72.8764 40.5584 72.7006 40.3827C72.5249 40.2069 72.4663 38.8986 72.4663 35.7156C72.4663 31.3415 72.4663 31.2634 72.8959 30.9705C73.2865 30.6971 74.712 30.658 84.4366 30.658C91.7204 30.658 95.6649 30.7361 95.9188 30.8533ZM27.3189 49.0138C27.3579 53.1536 27.3384 53.6223 27.026 53.8371C26.5964 54.1691 4.70611 54.2081 4.10076 53.8957C3.74927 53.7004 3.72974 53.427 3.72974 49.131C3.72974 46.6315 3.78832 44.5225 3.86643 44.4639C3.92501 44.3858 9.23648 44.3468 15.6219 44.3663L27.2603 44.4249L27.3189 49.0138ZM54.6573 44.5616C54.833 44.7373 54.8916 46.0456 54.8916 49.2481C54.8916 53.427 54.8721 53.7004 54.5206 53.8957C54.2667 54.0128 50.3222 54.091 43.0385 54.091C33.3138 54.091 31.8883 54.0519 31.4978 53.7785C31.0681 53.4856 31.0681 53.4075 31.0681 49.0333C31.0681 46.5924 31.1267 44.5225 31.2048 44.4639C31.2634 44.3858 36.5163 44.3272 42.8822 44.3272C51.5915 44.3272 54.4815 44.3858 54.6573 44.5616ZM82.191 44.5616C82.5229 44.8935 82.5229 53.5247 82.191 53.8566C81.859 54.1886 59.1681 54.1886 58.8362 53.8566C58.5042 53.5247 58.5042 44.8935 58.8362 44.5616C59.1681 44.2296 81.859 44.2296 82.191 44.5616ZM68.3265 57.9183C68.7561 58.2112 68.7561 58.2894 68.7561 62.5268C68.7561 66.2761 68.717 66.9009 68.4241 67.2134C68.1312 67.5454 67.5063 67.5649 56.7467 67.5649C48.1937 67.5649 45.3427 67.5063 45.167 67.3306C44.9912 67.1548 44.9326 65.8269 44.9326 62.5463C44.9326 58.4456 44.9717 57.9964 45.2841 57.8207C45.4989 57.684 49.5606 57.6254 56.7467 57.6059C66.53 57.6059 67.9359 57.6449 68.3265 57.9183ZM95.9773 58.0355C96.2312 58.4065 96.2898 59.1876 96.2898 62.5854C96.2898 65.9832 96.2312 66.7643 95.9773 67.1353L95.6844 67.5649H84.2999C75.7274 67.5649 72.8764 67.5063 72.7006 67.3306C72.5249 67.1548 72.4663 65.8465 72.4663 62.6635C72.4663 58.8752 72.5054 58.1722 72.7787 57.9183C73.0521 57.6449 74.3605 57.6059 84.3781 57.6059H95.6844L95.9773 58.0355ZM41.0076 58.0745C41.1638 58.2503 41.2224 59.6953 41.1834 62.8978L41.1248 67.4672L29.6231 67.5258C19.1174 67.5649 18.0824 67.5454 17.7504 67.2524C17.438 66.94 17.3989 66.5495 17.3989 62.5854C17.3989 59.5001 17.4575 58.2112 17.6333 58.0355C18.0043 57.6645 40.6952 57.7035 41.0076 58.0745ZM27.1822 71.4704C27.5337 71.6656 27.5532 71.9195 27.5532 75.9812C27.5532 78.5784 27.4751 80.4335 27.3579 80.6678C27.1627 81.0193 26.8112 81.0388 15.6805 81.0388C7.01035 81.0388 4.13982 80.9802 3.96407 80.8045C3.61258 80.453 3.6321 71.5485 3.9836 71.4118C4.47178 71.197 26.7916 71.2751 27.1822 71.4704ZM54.7745 71.5875C55.0478 71.8414 55.0869 72.5249 55.0869 76.0984C55.0869 79.75 55.0478 80.3749 54.7549 80.6873C54.462 81.0193 53.8371 81.0388 43.0775 81.0388C34.5245 81.0388 31.6735 80.9802 31.4978 80.8045C31.1463 80.453 31.1658 71.5485 31.5173 71.4118C31.6344 71.3532 36.8678 71.2946 43.1166 71.2946C53.1927 71.2751 54.5011 71.3142 54.7745 71.5875ZM82.3081 71.5875C82.5425 72.1929 82.4448 80.5506 82.191 80.8045C81.859 81.1365 59.1681 81.1365 58.8362 80.8045C58.5042 80.4725 58.5042 71.8414 58.8362 71.5094C59.0119 71.3337 61.902 71.2751 70.6307 71.2751C80.9803 71.2751 82.191 71.3142 82.3081 71.5875Z" fill="#4CD8AD"/>
</svg>
