<svg width="20" height="20" viewBox="0 0 20 20" fill="none" xmlns="http://www.w3.org/2000/svg">
<path d="M5.63415 0.174098C4.33127 -0.155479 2.96574 -0.0156586 1.89587 0.581075C0.805958 1.1878 0.041765 2.26391 0.00418177 3.70331C-0.0534459 5.95292 0.468961 8.97155 2.54356 12.5145C4.59184 16.0138 6.8531 18.1111 8.72976 19.357C9.91489 20.1447 11.224 20.1659 12.3428 19.6528C13.4452 19.1472 14.3397 18.1373 14.8045 16.8851C14.9201 16.5737 14.9666 16.241 14.9407 15.9099C14.9147 15.5788 14.8169 15.2573 14.6541 14.9676L13.459 12.8416C13.0914 12.1878 12.5 11.6877 11.793 11.4326C11.0859 11.1775 10.3103 11.1844 9.60796 11.4521L8.77361 11.7705C8.36896 11.924 7.99689 11.8528 7.78642 11.6456C7.0786 10.9528 6.57248 10.0127 6.34322 8.99901C6.27056 8.67942 6.41839 8.30241 6.77167 8.0365L7.52459 7.46973C8.13328 7.01202 8.55349 6.34874 8.70641 5.6043C8.85932 4.85986 8.73444 4.0854 8.35518 3.42617L7.13748 1.31014C6.97616 1.02999 6.75994 0.785046 6.50167 0.58988C6.24341 0.394714 5.94838 0.253315 5.63415 0.174098ZM1.25696 3.73577C1.28201 2.76951 1.7731 2.07915 2.50723 1.66968C3.2614 1.24897 4.29118 1.12038 5.32597 1.38255C5.6329 1.45995 5.89348 1.65719 6.05133 1.93059L7.26777 4.04662C7.49529 4.442 7.5703 4.90649 7.47874 5.35303C7.38719 5.79957 7.13534 6.19751 6.77042 6.47226L6.0175 7.03903C5.36606 7.5284 4.91506 8.36732 5.12052 9.27241C5.39863 10.4983 6.01374 11.6606 6.90823 12.5357C7.56217 13.1749 8.49424 13.2123 9.22085 12.9352L10.0552 12.6169C10.4767 12.4561 10.9423 12.4518 11.3667 12.605C11.7911 12.7581 12.146 13.0583 12.3666 13.4508L13.5605 15.5768C13.7108 15.844 13.7359 16.1636 13.6294 16.4507C13.2661 17.4307 12.5833 18.166 11.8191 18.5168C11.0712 18.8601 10.2256 18.8501 9.42505 18.317C7.7075 17.176 5.57903 15.2185 3.6247 11.8841C1.66912 8.5396 1.20559 5.75068 1.25821 3.73702L1.25696 3.73577Z" fill="#4CD8AD"/>
<path d="M13.4115 0.106505C13.2664 0.0260485 13.095 0.00636509 12.9353 0.0517843C12.7755 0.0972035 12.6404 0.204005 12.5597 0.348694C12.4789 0.493382 12.4592 0.664106 12.5047 0.823307C12.5503 0.982509 12.6575 1.11715 12.8027 1.1976L13.2838 1.46476C14.7866 2.2967 16.065 3.47886 17.0096 4.91022C17.9543 6.34157 18.5371 7.97956 18.7083 9.6842L18.7484 10.0774C18.7531 10.1616 18.7749 10.244 18.8124 10.3195C18.85 10.3951 18.9025 10.4622 18.9668 10.517C19.0311 10.5718 19.1058 10.613 19.1866 10.6382C19.2673 10.6634 19.3523 10.6721 19.4365 10.6636C19.5207 10.6552 19.6022 10.6298 19.6763 10.5891C19.7504 10.5484 19.8154 10.4932 19.8675 10.4267C19.9195 10.3603 19.9576 10.284 19.9792 10.2025C20.0009 10.121 20.0058 10.036 19.9936 9.95261L19.9548 9.56061C19.7636 7.65505 19.1123 5.82395 18.0564 4.22386C17.0004 2.62378 15.5714 1.3023 13.8914 0.372413L13.4115 0.106505Z" fill="#4CD8AD"/>
<path d="M11.9431 3.45201C12.0287 3.31016 12.1673 3.20798 12.3284 3.16795C12.4896 3.12792 12.6601 3.15331 12.8025 3.23854L12.9579 3.33092C13.9689 3.93522 14.8361 4.75107 15.4997 5.72209C16.1633 6.69311 16.6075 7.79614 16.8014 8.95494L16.8565 9.28827C16.8723 9.37 16.8715 9.45406 16.8541 9.53549C16.8368 9.61691 16.8033 9.69407 16.7557 9.7624C16.708 9.83074 16.6471 9.88889 16.5765 9.93342C16.5059 9.97795 16.4271 10.008 16.3447 10.0217C16.2624 10.0354 16.1781 10.0326 16.0968 10.0134C16.0155 9.9942 15.9389 9.95899 15.8715 9.90984C15.8041 9.8607 15.7472 9.79861 15.7042 9.72724C15.6613 9.65587 15.6331 9.57665 15.6213 9.49425L15.5649 9.16093C15.4009 8.18049 15.0254 7.24721 14.4641 6.42557C13.9028 5.60392 13.1692 4.91351 12.3139 4.40204L12.1586 4.30841C12.088 4.26629 12.0264 4.21072 11.9774 4.14488C11.9284 4.07904 11.8928 4.00422 11.8728 3.92469C11.8528 3.84517 11.8487 3.76249 11.8608 3.68139C11.8728 3.60028 11.9008 3.52234 11.9431 3.45201Z" fill="#4CD8AD"/>
</svg>
