<svg width="19" height="32" viewBox="0 0 19 32" fill="none" xmlns="http://www.w3.org/2000/svg">
<path d="M17.3727 30.6284L17.3728 30.6283C17.8723 30.1112 18.1499 29.4135 18.1499 28.6896C18.1499 27.9656 17.8723 27.2679 17.3728 26.7508L17.3728 26.7508L6.94399 15.9564L17.3728 5.16201L17.3728 5.16207L17.3788 5.15572C17.8639 4.63586 18.1296 3.94303 18.1235 3.22714C18.1175 2.51123 17.8402 1.82313 17.3463 1.31188C16.8518 0.800072 16.1793 0.506493 15.4724 0.500137C14.7655 0.493778 14.088 0.775236 13.5848 1.27826L13.5847 1.27821L13.5787 1.28446L1.27676 14.0176L1.2767 14.0177C0.77729 14.5348 0.499645 15.2324 0.499645 15.9564C0.499645 16.6804 0.77729 17.378 1.2767 17.8951L1.27676 17.8952L13.5787 30.6283L13.5787 30.6284C14.0789 31.1459 14.7608 31.4399 15.4757 31.4399C16.1906 31.4399 16.8726 31.1459 17.3727 30.6284Z" fill="#4CD8AD" stroke="#4CD8AD"/>
</svg>
