<svg width="100" height="100" viewBox="0 0 100 100" fill="none" xmlns="http://www.w3.org/2000/svg">
<path d="M12.4609 0.139442C10.0195 0.56913 6.48438 2.15116 4.23828 3.81132C2.1875 5.31522 0.761719 6.64335 0.371094 7.40507C0.0195312 8.10819 0 9.26054 0 49.9441C0 91.4676 0 91.7605 0.390625 92.5223C0.839844 93.4012 1.95312 94.0848 2.92969 94.0848C3.71094 94.0848 4.82422 93.4988 5.56641 92.7176C6.5625 91.6629 8.63281 90.2371 10.3711 89.4168C13.6328 87.8543 16.1719 87.8738 19.4336 89.4949C21.4453 90.5105 23.5547 92.1121 23.8672 92.8738C25.1953 96.1746 26.5625 97.9715 28.418 98.9285C31.9336 100.706 35.7812 100.12 38.3789 97.3855C39.3555 96.3699 40.0586 95.159 40.9766 92.8738C41.2891 92.1121 43.3789 90.5301 45.4102 89.4949C48.7109 87.8348 51.25 87.8348 54.5898 89.4949C56.6016 90.5105 58.7109 92.1121 59.0234 92.8738C60.3516 96.1746 61.7188 97.9715 63.5742 98.9285C67.0898 100.706 70.9375 100.12 73.5352 97.3855C74.5117 96.3699 75.2148 95.159 76.1328 92.8738C76.6992 91.4676 81.25 88.7918 83.75 88.3816C86.8555 87.8738 90.3516 89.1238 93.6914 91.9363C95.3906 93.3816 96.2695 93.8894 97.0312 93.8894C98.0273 93.8894 99.1602 93.2059 99.6094 92.3269C100 91.5652 100 91.2723 100 49.8465C100 8.65507 100 8.12772 99.6094 7.366C98.8672 5.92069 95.2344 3.16679 92.168 1.72147C89.1406 0.315224 88.0469 0.0613174 85.0586 0.0613174C82.7148 0.0613174 82.3828 0.119911 80.6641 0.705849C77.5977 1.741 75.3711 3.08866 72.5 5.56913C71.25 6.64335 70.7617 7.44413 70.332 9.02616C69.7266 11.2918 67.9102 12.2879 66.25 11.2723C65.6055 10.8816 64.6484 9.22147 64.6484 8.47929C64.6484 6.40897 59.043 2.15116 54.2969 0.608192C52.832 0.139442 52.3438 0.0808487 50 0.0613174C47.5195 0.0613174 47.2461 0.10038 45.5078 0.705849C42.4414 1.741 40.2148 3.08866 37.3438 5.56913C36.0938 6.64335 35.6055 7.44413 35.1758 9.02616C34.5703 11.2918 32.7539 12.2879 31.0938 11.2723C30.4492 10.8816 29.4922 9.22147 29.4922 8.47929C29.4922 6.40897 23.7891 2.09257 19.1406 0.627724C17.3047 0.0613174 14.1406 -0.173058 12.4609 0.139442ZM16.9531 6.09647C18.457 6.44804 20.7422 7.63944 22.4414 8.96757L23.6328 9.90507V26.8777V43.8504L22.3633 43.1668C17.5586 40.6277 12.9102 40.5301 7.85156 42.9129L5.85938 43.8699V26.8973V9.90507L7.28516 8.85038C10.7422 6.25272 13.7891 5.37382 16.9531 6.09647ZM52.1094 6.09647C53.6133 6.44804 55.8984 7.63944 57.5977 8.96757L58.7891 9.90507V26.8777V43.8504L57.5391 43.1863C55.2148 41.9363 52.2656 41.1551 50 41.1551C47.7344 41.1551 44.7852 41.9363 42.4609 43.1863L41.2109 43.8504V26.8777V9.90507L42.4414 8.94804C44.0234 7.6785 46.3281 6.46757 47.7734 6.116C49.2969 5.74491 50.5273 5.74491 52.1094 6.09647ZM87.2852 6.09647C88.8867 6.4871 90.957 7.52225 92.7344 8.85038L94.1406 9.90507V26.8973V43.8894L92.6367 43.1473C87.4023 40.5301 82.5977 40.5301 77.6172 43.1863L76.3672 43.8504V26.8777V9.90507L77.5977 8.94804C80.918 6.31132 84.1406 5.35429 87.2852 6.09647ZM32.4219 17.4246C33.2227 17.4246 34.2188 17.3465 34.6289 17.2683L35.3516 17.1121V33.5769V50.0418L34.8633 51.0574C33.7305 53.4988 31.1133 53.4988 29.9805 51.0574L29.4922 50.0418V33.5769V17.1121L30.2344 17.2683C30.625 17.3465 31.6211 17.4246 32.4219 17.4246ZM67.5781 17.4246C68.3789 17.4246 69.375 17.3465 69.7852 17.2683L70.5078 17.1121V33.5769V50.0418L70.0195 51.0574C68.8867 53.4988 66.2695 53.4988 65.1367 51.0574L64.6484 50.0418V33.5769V17.1121L65.3906 17.2683C65.7812 17.3465 66.7773 17.4246 67.5781 17.4246ZM16.9531 47.3074C18.457 47.659 20.7422 48.8504 22.4414 50.1785L23.6328 51.116V68.0887V85.0613L22.3633 84.3777C17.5586 81.8387 12.9102 81.741 7.85156 84.1238L5.85938 85.0809V68.0887V51.116L7.1875 50.1394C8.92578 48.8504 11.2109 47.659 12.6367 47.3269C14.1406 46.9558 15.3711 46.9558 16.9531 47.3074ZM52.1094 47.3074C53.6133 47.659 55.8984 48.8504 57.5977 50.1785L58.7891 51.116V68.0887V85.0613L57.5391 84.3973C55.2148 83.1473 52.2656 82.366 50 82.366C47.7344 82.366 44.7852 83.1473 42.4609 84.3973L41.2109 85.0613V68.0887V51.116L42.4414 50.159C44.0234 48.8894 46.3281 47.6785 47.7734 47.3269C49.2969 46.9558 50.5273 46.9558 52.1094 47.3074ZM87.2852 47.3074C88.8867 47.698 90.957 48.7332 92.7344 50.0613L94.1406 51.116V68.0691V85.0223L92.4609 84.2019C87.4805 81.7605 82.4609 81.8191 77.6367 84.3777L76.3672 85.0613V68.0887V51.116L77.5977 50.159C80.918 47.5223 84.1406 46.5652 87.2852 47.3074ZM32.4219 58.6355C33.2227 58.6355 34.2188 58.5574 34.6289 58.4793L35.3516 58.323V74.7879V91.2527L34.8633 92.2684C33.7305 94.7098 31.1133 94.7098 29.9805 92.2684L29.4922 91.2527V74.7879V58.323L30.2344 58.4793C30.625 58.5574 31.6211 58.6355 32.4219 58.6355ZM67.5781 58.6355C68.3789 58.6355 69.375 58.5574 69.7852 58.4793L70.5078 58.323V74.7879V91.2527L70.0195 92.2684C68.8867 94.7098 66.2695 94.7098 65.1367 92.2684L64.6484 91.2527V74.7879V58.323L65.3906 58.4793C65.7812 58.5574 66.7773 58.6355 67.5781 58.6355Z" fill="#4CD8AD"/>
</svg>
