<svg width="16" height="16" viewBox="0 0 16 16" fill="none" xmlns="http://www.w3.org/2000/svg">
<path d="M10.0001 3.00001C10.0001 4.31301 9.69611 5.50801 9.20011 6.40001C8.9901 6.24182 8.75083 6.12679 8.49612 6.06157C8.24141 5.99635 7.97631 5.98222 7.71611 6.02001C7.43611 5.03801 6.80611 3.98001 5.87811 3.05101C5.72056 2.89319 5.55676 2.74174 5.38711 2.59701C6.20167 2.20273 7.09515 1.99859 8.00011 2.00001C8.69111 2.00001 9.35511 2.11701 9.97311 2.33201C9.99111 2.55101 10.0001 2.77401 10.0001 3.00001ZM10.0001 8.00001C10.0001 8.07301 9.99611 8.14601 9.98811 8.21701C11.0061 8.19801 12.1881 7.86401 13.3191 7.21101C13.5139 7.09837 13.704 6.97793 13.8891 6.85001C13.5846 5.2912 12.6749 3.91654 11.3591 3.02701C11.3186 3.24203 11.2702 3.4555 11.2141 3.66701C10.8741 4.93601 10.2701 6.01301 9.55811 6.74601C9.83511 7.08901 10.0001 7.52601 10.0001 8.00001ZM9.86311 8.72801C9.76662 8.97424 9.62242 9.19898 9.43879 9.3893C9.25517 9.57962 9.03574 9.73177 8.79311 9.83701C9.31811 10.707 10.1981 11.562 11.3281 12.214C11.5281 12.33 11.7301 12.436 11.9331 12.531C12.5292 12.0148 13.0175 11.3858 13.3698 10.6803C13.7221 9.97485 13.9316 9.2067 13.9861 8.42001C13.7781 8.49301 13.5651 8.56001 13.3451 8.61901C12.0811 8.95801 10.8521 8.97501 9.86311 8.72901V8.72801ZM8.00011 10C7.55011 10 7.13411 9.85101 6.80011 9.60001C6.30611 10.49 6.00411 11.682 6.00411 12.991C6.00411 13.221 6.01411 13.448 6.03111 13.669C6.66431 13.8887 7.32988 14.0006 8.00011 14C8.94011 14 9.83011 13.784 10.6231 13.398C10.4513 13.2521 10.2855 13.0993 10.1261 12.94C9.20111 12.014 8.57111 10.959 8.29011 9.98001C8.19611 9.99301 8.09911 10 8.00011 10V10ZM6.00011 8.00001C6.00011 7.92001 6.00511 7.84001 6.01411 7.76101C4.99411 7.77801 3.80911 8.11201 2.67411 8.76801C2.48005 8.88002 2.29056 8.99978 2.10611 9.12701C2.25427 9.90137 2.55352 10.639 2.98676 11.2977C3.42 11.9564 3.97876 12.5233 4.63111 12.966C4.67172 12.7465 4.72109 12.5286 4.77911 12.313C5.11911 11.046 5.71911 9.97101 6.42911 9.23801C6.15033 8.88567 5.99911 8.44929 6.00011 8.00001ZM2.65311 7.36801C3.92011 7.02801 5.15111 7.01301 6.14111 7.26101C6.33711 6.76701 6.72411 6.37101 7.21111 6.16101C6.68711 5.28701 5.80511 4.42801 4.67011 3.77301C4.47637 3.6611 4.27821 3.55702 4.07611 3.46101C3.47933 3.97609 2.99014 4.60395 2.63663 5.30857C2.28312 6.01319 2.07225 6.78068 2.01611 7.56701C2.22211 7.49301 2.43411 7.42701 2.65311 7.36801V7.36801ZM8.00011 9.00001C8.26533 9.00001 8.51968 8.89465 8.70722 8.70711C8.89476 8.51958 9.00011 8.26522 9.00011 8.00001C9.00011 7.73479 8.89476 7.48044 8.70722 7.2929C8.51968 7.10536 8.26533 7.00001 8.00011 7.00001C7.7349 7.00001 7.48054 7.10536 7.29301 7.2929C7.10547 7.48044 7.00011 7.73479 7.00011 8.00001C7.00011 8.26522 7.10547 8.51958 7.29301 8.70711C7.48054 8.89465 7.7349 9.00001 8.00011 9.00001Z" fill="#4CD8AD"/>
<path d="M8 15C6.14348 15 4.36301 14.2625 3.05025 12.9497C1.7375 11.637 1 9.85652 1 8C1 6.14348 1.7375 4.36301 3.05025 3.05025C4.36301 1.7375 6.14348 1 8 1C9.85652 1 11.637 1.7375 12.9497 3.05025C14.2625 4.36301 15 6.14348 15 8C15 9.85652 14.2625 11.637 12.9497 12.9497C11.637 14.2625 9.85652 15 8 15ZM8 16C10.1217 16 12.1566 15.1571 13.6569 13.6569C15.1571 12.1566 16 10.1217 16 8C16 5.87827 15.1571 3.84344 13.6569 2.34315C12.1566 0.842855 10.1217 0 8 0C5.87827 0 3.84344 0.842855 2.34315 2.34315C0.842855 3.84344 0 5.87827 0 8C0 10.1217 0.842855 12.1566 2.34315 13.6569C3.84344 15.1571 5.87827 16 8 16V16Z" fill="#4CD8AD"/>
</svg>
