<svg width="85" height="56" viewBox="0 0 85 56" fill="none" xmlns="http://www.w3.org/2000/svg">
<path d="M2.07558 0.8536C1.71034 1.01962 1.2123 1.36824 0.963281 1.63387C-0.0494048 2.71296 0.00039941 1.9493 0.00039941 18.2685V33.1765L0.415435 34.0232C0.681057 34.5545 1.09609 35.0359 1.52773 35.3347L2.20839 35.8162H42.5H82.7916L83.4723 35.3347C83.9039 35.0359 84.3189 34.5545 84.5846 34.0232L84.9996 33.1765V18.2685C84.9996 1.9493 85.0494 2.71296 84.0367 1.63387C83.107 0.654385 82.609 0.538174 78.9069 0.538174C75.7526 0.538174 75.5202 0.554775 75.2048 0.870201C74.8229 1.25203 74.7731 1.9991 75.1052 2.46394C75.321 2.74616 75.6198 2.77937 78.6911 2.86237C81.7623 2.94538 82.0611 2.97858 82.277 3.2608C82.4762 3.54303 82.5094 5.86723 82.5094 18.3349V33.0769L82.111 33.326C81.8287 33.5086 81.4137 33.575 80.733 33.5418L79.7702 33.492L79.6871 29.0926C79.6207 25.3407 79.5543 24.6102 79.3219 24.162C78.9401 23.4647 77.9938 22.7011 77.2135 22.4686C76.7487 22.3358 69.0124 22.286 48.3271 22.286H20.0715L19.6731 22.7011C19.4406 22.9169 19.258 23.2157 19.258 23.3485C19.258 23.8631 19.6565 24.4276 20.1379 24.6102C20.4699 24.7264 29.5177 24.7762 48.6591 24.7762H76.6823L77.0143 25.2079C77.2135 25.4569 77.3629 25.7557 77.3629 25.8719C77.3629 26.0711 71.8513 26.1043 42.5 26.1043C13.1487 26.1043 7.63705 26.0711 7.63705 25.8719C7.63705 25.7557 7.78646 25.4569 7.98568 25.2079L8.3177 24.7762H11.4388C13.2981 24.7762 14.7757 24.6932 15.0911 24.5936C16.0208 24.2616 16.2532 23.2157 15.5061 22.6346C15.0911 22.3026 14.8421 22.286 11.7376 22.286C8.11849 22.286 7.48763 22.3856 6.55795 23.1493C5.42906 24.0956 5.41246 24.2118 5.31285 29.0926L5.22984 33.492L4.26696 33.5418C3.5863 33.575 3.17127 33.5086 2.88904 33.326L2.49061 33.0769V18.3349C2.49061 5.86723 2.52381 3.54303 2.72303 3.2608C2.95545 2.94538 3.5531 2.94538 36.9053 2.86237C65.3269 2.79597 70.8884 2.74616 71.1042 2.54694C71.2868 2.41413 71.3864 2.0821 71.3864 1.68367C71.3864 0.438564 74.5739 0.538174 36.6895 0.538174C4.00134 0.538174 2.72303 0.554775 2.07558 0.8536ZM77.3629 29.0926V29.5906H42.5H7.63705V29.0926V28.5946H42.5H77.3629V29.0926ZM77.3629 32.8279V33.575H42.5H7.63705V32.8279V32.0808H42.5H77.3629V32.8279Z" fill="#4CD8AD"/>
<path d="M25.3175 12.5908C25.1348 12.6406 24.8194 12.707 24.6202 12.7568C24.0724 12.8564 23.0597 13.8027 22.8106 14.4335C22.213 15.8446 22.8439 17.4882 24.2716 18.2352C24.9522 18.5839 59.5662 18.5839 60.2468 18.2352C62.405 17.1063 62.4548 14.1679 60.3464 12.956L59.6824 12.5742L42.6659 12.5576C33.3027 12.5409 25.5001 12.5576 25.3175 12.5908ZM59.4167 15.2968C59.533 15.5126 59.533 15.6786 59.3835 15.8778C59.2009 16.1269 57.8064 16.1435 42.1679 16.1103C25.9151 16.0604 25.1514 16.0438 25.1016 15.7616C24.9356 14.9316 24.0059 14.9814 42.2343 14.9814C58.6697 14.9814 59.2673 14.998 59.4167 15.2968Z" fill="#4CD8AD"/>
<path d="M11.7541 38.157C11.4885 38.2898 11.2561 38.5886 11.1897 38.8542C11.1399 39.1032 11.0735 39.4685 11.0237 39.6677C10.9905 39.8669 10.5754 40.4646 10.1106 40.9958C8.96508 42.2907 8.63306 43.0378 8.63306 44.3659C8.63306 45.6442 8.99829 46.5241 9.92797 47.5534C10.8576 48.5992 11.1233 49.0309 11.1233 49.5621C11.1233 50.193 10.8908 50.5914 10.011 51.5543C9.0979 52.5338 8.64966 53.5133 8.63306 54.5259C8.63306 56.4351 10.7248 56.5181 11.0071 54.609C11.0735 54.1773 11.3557 53.7125 11.9699 53.0318C13.0822 51.7867 13.4973 50.857 13.5139 49.5953C13.5139 48.3502 13.0988 47.4537 11.9699 46.1754C10.6418 44.6813 10.6418 44.1003 11.9699 42.5895C12.9826 41.444 13.4641 40.4646 13.4973 39.4685C13.5471 38.323 12.6672 37.6589 11.7541 38.157Z" fill="#4CD8AD"/>
<path d="M26.7785 38.0905C26.4132 38.2565 26.1808 38.7214 25.9816 39.6178C25.9318 39.8835 25.5002 40.5309 25.0353 41.0289C23.9728 42.191 23.5744 43.1041 23.5744 44.3658C23.5744 45.5777 23.9728 46.524 24.9357 47.6031C25.8322 48.5992 26.0646 49.0142 26.0646 49.5953C26.0646 50.1763 25.8322 50.5914 24.9357 51.5874C23.1926 53.5298 23.0764 55.9868 24.7365 55.9868C25.3341 55.9868 25.8986 55.4224 25.8986 54.8247C25.8986 54.3599 26.1476 53.9448 27.3429 52.5005C29.0197 50.4751 28.8702 48.3502 26.9113 46.1422C25.5832 44.6315 25.5832 44.1002 26.9113 42.5895C27.8908 41.4772 28.1398 41.0456 28.4054 39.9831C28.6544 38.987 28.4054 38.3229 27.6915 38.0739C27.4093 37.9743 27.1769 37.8913 27.1603 37.9079C27.1437 37.9079 26.9777 37.9909 26.7785 38.0905Z" fill="#4CD8AD"/>
<path d="M41.7363 38.0905C41.3213 38.2897 41.0058 38.8874 41.0058 39.4684C41.0058 39.734 40.6904 40.2321 40.1592 40.8131C39.0303 42.0582 38.5156 43.1871 38.5156 44.399C38.5156 45.6275 38.9141 46.5074 40.0762 47.8355C40.8896 48.7818 41.0058 48.9976 41.0058 49.6119C41.0058 50.2427 40.9062 50.4419 40.0762 51.3716C38.9805 52.5835 38.5156 53.563 38.5156 54.5923C38.5156 55.4722 38.9473 55.9868 39.6777 55.9868C40.3418 55.9868 40.7568 55.5386 40.9062 54.6919C40.9726 54.1939 41.2383 53.7456 41.8525 53.0484C43.1142 51.604 43.3964 50.9732 43.3964 49.5953C43.3964 48.2174 43.1142 47.5865 41.8691 46.1588C40.5742 44.6813 40.5742 43.9508 41.9189 42.5231C43.5791 40.7467 43.9609 38.6383 42.7324 38.0739C42.2509 37.8581 42.2011 37.8581 41.7363 38.0905Z" fill="#4CD8AD"/>
<path d="M56.744 38.0739C56.3124 38.2399 55.9471 38.9206 55.9471 39.568C55.9471 39.734 55.5653 40.2985 55.1005 40.8297C53.9716 42.108 53.4569 43.2037 53.4569 44.3658C53.4569 45.5279 53.9716 46.6236 55.1005 47.9019C55.8475 48.7486 55.9471 48.9478 55.9471 49.5953C55.9471 50.2427 55.8475 50.4419 55.1005 51.2886C53.5731 53.0152 53.0419 54.8081 53.789 55.6216C54.2206 56.0698 55.0009 56.103 55.4325 55.6714C55.5985 55.5054 55.7977 55.0571 55.8641 54.6919C55.9305 54.2105 56.2128 53.729 56.7938 53.0816C58.0389 51.6538 58.3377 50.9732 58.3377 49.5953C58.3377 48.2174 57.9891 47.4205 56.8436 46.192C55.5653 44.8141 55.5487 44.0338 56.7938 42.6061C58.5204 40.6471 58.9354 38.738 57.7733 38.1403C57.5077 38.0075 57.2752 37.8913 57.242 37.9079C57.2088 37.9079 56.993 37.9909 56.744 38.0739Z" fill="#4CD8AD"/>
<path d="M71.8014 38.0574C71.3033 38.24 71.0875 38.5554 70.9215 39.3523C70.8219 39.8005 70.4733 40.3816 69.9254 40.9958C68.8629 42.2575 68.5475 42.8884 68.4479 44.0671C68.3151 45.362 68.6803 46.2585 69.9088 47.7194C70.7721 48.7487 70.8883 48.9811 70.8883 49.5953C70.8883 50.2262 70.7721 50.442 69.9752 51.3883C68.4313 53.1978 67.9665 54.858 68.7799 55.6217C69.5934 56.3853 70.6227 55.8873 70.8219 54.6754C70.9049 54.1939 71.1871 53.7125 71.8678 52.9156C73.8932 50.5914 73.8766 48.5993 71.8512 46.2585C70.9713 45.2458 70.8883 45.0632 70.8883 44.3825C70.8883 43.7018 70.9879 43.5026 71.8678 42.4733C72.8473 41.3112 73.3785 40.1989 73.3785 39.2859C73.3785 38.3894 72.5484 37.7419 71.8014 38.0574Z" fill="#4CD8AD"/>
</svg>
