<svg width="50" height="45" viewBox="0 0 50 45" fill="none" xmlns="http://www.w3.org/2000/svg">
<path d="M23.5805 0.160889C22.8871 0.405029 22.1254 0.912842 21.7348 1.39136C21.3344 1.8894 0.435941 38.0417 0.1918 38.6863C-0.0718717 39.3601 -0.0621061 40.9031 0.211331 41.6355C0.641019 42.7878 1.66641 43.7742 2.80899 44.1257C3.43399 44.321 3.66836 44.321 24.9086 44.321C46.1488 44.321 46.3832 44.321 47.0082 44.1257C49.0297 43.5007 50.2992 41.2058 49.7719 39.1453C49.6449 38.6472 48.7563 37.0359 45.4945 31.3816C43.2289 27.4656 41.2563 24.0476 41.1 23.8035C40.6605 23.071 39.9574 22.9441 39.4496 23.4812C38.9516 24.0085 38.8832 23.8523 43.4633 31.7722C45.7875 35.7957 47.7602 39.2917 47.8285 39.5359C48.1605 40.6003 47.5844 41.7722 46.5199 42.2214C46.0023 42.4363 3.81485 42.4363 3.29727 42.2214C2.23282 41.7722 1.65664 40.6003 1.98868 39.5359C2.16446 38.9597 22.8871 3.06128 23.2875 2.64136C23.7465 2.14331 24.225 1.93823 24.9086 1.93823C25.5922 1.93823 26.0707 2.14331 26.5297 2.64136C26.6957 2.81714 28.7563 6.30347 31.1098 10.3855C33.7758 15.0242 35.5043 17.9343 35.7191 18.1394C36.0219 18.4226 36.1098 18.4617 36.4223 18.4031C36.9398 18.325 37.35 17.8367 37.2816 17.3972C37.2426 17.2019 35.3285 13.7839 32.7992 9.3894C27.9555 0.981201 27.9457 0.971436 26.725 0.365967C26.1098 0.072998 25.9535 0.0339355 25.0648 0.00463867C24.3031 -0.0148926 23.9613 0.0241699 23.5805 0.160889Z" fill="#4CD8AD"/>
<path d="M23.9124 14.5847C22.9066 14.9558 22.1058 15.864 21.891 16.8796C21.8031 17.2703 21.7835 18.7644 21.8031 22.2507L21.8324 27.0847L22.0863 27.6316C22.6234 28.7742 23.6488 29.4285 24.9085 29.4285C26.1683 29.4285 27.1937 28.7742 27.7308 27.6316L27.9847 27.0847L28.014 22.2507C28.0335 18.7644 28.014 17.2703 27.9261 16.8796C27.7015 15.8445 26.9007 14.946 25.8753 14.5847C25.3773 14.4089 24.391 14.4089 23.9124 14.5847ZM25.4456 16.5476C26.0902 16.8503 26.0902 16.821 26.0609 22.0945L26.0316 26.8406L25.7093 27.1531C25.4359 27.4265 25.3285 27.4753 24.9085 27.4753C24.4886 27.4753 24.3812 27.4265 24.1078 27.1531L23.7855 26.8406L23.7562 22.0945C23.7269 16.8406 23.7269 16.8601 24.3519 16.5476C24.7523 16.3523 25.0453 16.3523 25.4456 16.5476Z" fill="#4CD8AD"/>
<path d="M37.7895 20.4832C37.184 21.0886 37.5844 22.0554 38.4438 22.0554C39.3129 22.0554 39.7231 21.0789 39.0981 20.4539C38.7367 20.0828 38.1703 20.1023 37.7895 20.4832Z" fill="#4CD8AD"/>
<path d="M23.9612 31.9968C22.8967 32.3777 22.2229 33.0906 21.9104 34.155C21.51 35.5613 22.2522 37.1238 23.6291 37.7683C24.0686 37.9734 24.3225 38.0222 24.9084 38.0222C26.1682 38.0222 27.1936 37.3679 27.7307 36.2253C28.258 35.1023 27.9944 33.6472 27.1057 32.7488C26.3049 31.9578 24.967 31.6355 23.9612 31.9968ZM25.5725 34.0281C25.885 34.2332 26.1096 34.7996 26.0412 35.1902C26.0022 35.3562 25.8459 35.6296 25.6799 35.7859C25.4358 36.0203 25.2991 36.0691 24.9084 36.0691C24.5178 36.0691 24.3811 36.0203 24.1369 35.7859C23.7463 35.405 23.6584 34.9656 23.8928 34.4871C24.2151 33.8328 24.9573 33.6277 25.5725 34.0281Z" fill="#4CD8AD"/>
</svg>
