<svg width="100" height="100" viewBox="0 0 100 100" fill="none" xmlns="http://www.w3.org/2000/svg">
<path d="M7.34564 0.351578C6.96852 0.527359 6.47231 0.937515 6.25398 1.23048L5.83716 1.77736V35.6446C5.83716 68.6525 5.83716 69.4923 6.21428 69.9025C6.77003 70.5079 7.7823 70.4493 8.29836 69.8048L8.71518 69.2775V36.1134V2.92971H49.9999H91.2846V8.88675C91.2846 12.8125 91.364 14.9805 91.5029 15.293C91.9991 16.3672 93.6069 16.3282 94.0634 15.2539C94.2222 14.8829 94.2619 12.793 94.2222 8.24221C94.1626 2.07033 94.1428 1.75783 93.7458 1.23048C93.5275 0.937515 93.0313 0.527359 92.6541 0.351578C92.019 0.0195465 89.5776 1.52588e-05 49.9999 1.52588e-05C10.4221 1.52588e-05 7.98079 0.0195465 7.34564 0.351578Z" fill="#4CD8AD"/>
<path d="M13.9751 6.52332C13.2209 6.85535 12.7842 7.3241 12.3873 8.2616C12.1292 8.8866 12.0895 13.4569 12.0895 49.414V89.8437H10.4024H8.71529V82.6953C8.71529 75.625 8.65575 74.9804 8.04045 74.5703C7.60378 74.2773 6.59151 74.414 6.2144 74.8242C5.85712 75.2148 5.83728 75.6836 5.77773 82.5195L5.71818 89.8047L3.65395 89.8828C1.7088 89.9414 1.56987 89.9609 0.994262 90.5078C0.0415378 91.4062 -0.0577043 91.8555 0.0216894 95.1758C0.0812346 98.5742 0.240022 98.9844 1.58971 99.6484C2.22486 99.9805 4.9441 100 50 100C95.0559 100 97.7751 99.9805 98.4103 99.6484C99.76 98.9844 99.9188 98.5742 99.9783 95.1758C100.058 91.8555 99.9585 91.4062 99.0057 90.5078C98.4301 89.9609 98.2912 89.9414 96.3262 89.8828L94.262 89.8047L94.2223 55.332L94.1627 20.8593L93.6864 20.4882C93.0115 19.9608 92.1977 20.0194 91.7015 20.6249L91.2847 21.1522V55.4882V89.8437H89.5976H87.9105V49.3554V8.86707L87.4738 8.0077C87.2158 7.53895 86.7593 6.97254 86.4615 6.7577C85.9058 6.34754 85.8859 6.34754 50.2382 6.30848C20.9419 6.26942 14.4713 6.30848 13.9751 6.52332ZM84.9332 49.5117V89.8437H50H15.0668V49.5117V9.17957H50H84.9332V49.5117ZM97.1995 94.8633L97.2591 97.0703H50H2.76077V94.9609C2.76077 93.7891 2.82032 92.7734 2.89971 92.7148C2.95925 92.6367 24.1971 92.5976 50.0794 92.6172L97.14 92.6758L97.1995 94.8633Z" fill="#4CD8AD"/>
<path d="M19.1951 12.1291C17.6469 12.9104 17.7462 11.8166 17.7462 29.9807C17.7462 45.2151 17.766 46.2307 18.1034 46.8362C18.3019 47.1877 18.7386 47.6565 19.0958 47.8518C19.7111 48.2229 20.1875 48.2424 33.1287 48.2424C46.05 48.2424 46.5462 48.2229 47.1615 47.8518C47.5188 47.6565 47.9554 47.2463 48.1539 46.9338C48.4914 46.426 48.5112 45.4885 48.5112 29.9807V13.5744L48.0745 12.969C47.1417 11.6799 47.6577 11.719 33.089 11.719C20.386 11.7385 19.9096 11.758 19.1951 12.1291ZM45.6332 30.0783V45.5081H33.1287H20.6242V30.0783V14.6486H33.1287H45.6332V30.0783Z" fill="#4CD8AD"/>
<path d="M53.0171 12.051C52.6598 12.2268 52.1636 12.6369 51.9254 12.969L51.4888 13.5744V29.9807C51.4888 45.4885 51.5086 46.426 51.846 46.9338C52.0445 47.2463 52.4812 47.6565 52.8385 47.8518C53.4538 48.2229 53.95 48.2424 66.8713 48.2424C79.8125 48.2424 80.2888 48.2229 80.9041 47.8518C81.2614 47.6565 81.6981 47.1877 81.8965 46.8362C82.234 46.2307 82.2538 45.2151 82.2538 29.9807C82.2538 11.758 82.3531 12.9104 80.7652 12.1096C80.0109 11.7385 79.614 11.719 66.8316 11.719C55.121 11.719 53.5927 11.758 53.0171 12.051ZM79.3758 30.0783V45.5081H66.8713H54.3668V30.0783V14.6486H66.8713H79.3758V30.0783Z" fill="#4CD8AD"/>
<path d="M19.096 51.9337C18.7388 52.1485 18.3021 52.5587 18.1036 52.8712C17.7662 53.379 17.7463 54.3165 17.7463 69.7462C17.7463 85.9572 17.7463 86.1134 18.1632 86.6407C18.3815 86.9337 18.8182 87.3634 19.1159 87.5782C19.6518 87.9884 19.8304 87.9884 33.0892 87.9884C46.1296 87.9884 46.5464 87.9689 47.1815 87.5978C47.5388 87.3829 47.9953 86.8556 48.2137 86.4259C48.5908 85.6447 48.6106 85.1564 48.6106 69.7657C48.6106 52.5782 48.6503 53.1641 47.519 52.1485L46.9831 51.6602L33.367 51.6016C20.1281 51.5626 19.7113 51.5626 19.096 51.9337ZM45.6334 69.7267V85.1564H33.1289H20.6244V69.7267V54.297H33.1289H45.6334V69.7267Z" fill="#4CD8AD"/>
<path d="M53.0765 51.7579C52.5406 51.9727 51.8658 52.7149 51.6077 53.379C51.4489 53.7501 51.3894 59.0235 51.3894 69.7657C51.3894 85.1564 51.4093 85.6447 51.7864 86.4259C52.0047 86.8556 52.4612 87.3829 52.8185 87.5978C53.4536 87.9689 53.8705 87.9884 66.9109 87.9884C80.1696 87.9884 80.3482 87.9884 80.8842 87.5782C81.1819 87.3634 81.6185 86.9337 81.8369 86.6407C82.2537 86.1134 82.2537 85.9572 82.2537 69.7462C82.2537 54.3165 82.2338 53.379 81.8964 52.8712C81.6979 52.5587 81.2613 52.1485 80.904 51.9532C80.2887 51.5821 79.8123 51.5626 66.8712 51.5821C59.5074 51.5821 53.2949 51.6602 53.0765 51.7579ZM79.3757 69.7267V85.1564H66.8712H54.3667V69.7267V54.297H66.8712H79.3757V69.7267Z" fill="#4CD8AD"/>
</svg>
